<svg xmlns="http://www.w3.org/2000/svg" xmlns:xlink="http://www.w3.org/1999/xlink" version="1.2" width="133.00mm" height="210.00mm" viewBox="0.0000 -0.0000 89.0404 140.5901">
<style type="text/css">
<![CDATA[
tspan { white-space: pre; }
]]>
</style>
<g transform="translate(10.0421, 14.0281)">
<line stroke-linejoin="round" stroke-linecap="round" stroke-width="0.1116" stroke="currentColor" x1="0.0558" y1="0" x2="70.9255" y2="0"/>
</g>
<g transform="translate(10.0421, 13.0281)">
<line stroke-linejoin="round" stroke-linecap="round" stroke-width="0.1116" stroke="currentColor" x1="0.0558" y1="0" x2="70.9255" y2="0"/>
</g>
<g transform="translate(10.0421, 12.0281)">
<line stroke-linejoin="round" stroke-linecap="round" stroke-width="0.1116" stroke="currentColor" x1="0.0558" y1="0" x2="70.9255" y2="0"/>
</g>
<g transform="translate(10.0421, 11.0281)">
<line stroke-linejoin="round" stroke-linecap="round" stroke-width="0.1116" stroke="currentColor" x1="0.0558" y1="0" x2="70.9255" y2="0"/>
</g>
<g transform="translate(10.0421, 10.0281)">
<line stroke-linejoin="round" stroke-linecap="round" stroke-width="0.1116" stroke="currentColor" x1="0.0558" y1="0" x2="70.9255" y2="0"/>
</g>
<g transform="translate(50.0664, 12.0281)">
<rect x="0.0000" y="-2.0000" width="0.2120" height="4.0000" ry="0.0000" fill="currentColor"/>
</g>
<g transform="translate(50.0664, 28.2271)">
<rect x="0.0000" y="-2.0000" width="0.2120" height="4.0000" ry="0.0000" fill="currentColor"/>
</g>
<g transform="translate(36.6822, 28.2271)">
<rect x="0.0000" y="-2.0000" width="0.2120" height="4.0000" ry="0.0000" fill="currentColor"/>
</g>
<g transform="translate(36.6822, 12.0281)">
<rect x="0.0000" y="-2.0000" width="0.2120" height="4.0000" ry="0.0000" fill="currentColor"/>
</g>
<g transform="translate(66.6038, 12.0281)">
<rect x="0.0000" y="-2.0000" width="0.2120" height="4.0000" ry="0.0000" fill="currentColor"/>
</g>
<g transform="translate(66.6038, 28.2271)">
<rect x="0.0000" y="-2.0000" width="0.2120" height="4.0000" ry="0.0000" fill="currentColor"/>
</g>
<g transform="translate(21.5895, 28.2271)">
<rect x="0.0000" y="-2.0000" width="0.2120" height="4.0000" ry="0.0000" fill="currentColor"/>
</g>
<g transform="translate(21.5895, 12.0281)">
<rect x="0.0000" y="-2.0000" width="0.2120" height="4.0000" ry="0.0000" fill="currentColor"/>
</g>
<g transform="translate(80.3538, 12.0281)">
<rect x="0.0000" y="-2.0000" width="0.6696" height="4.0000" ry="0.0000" fill="currentColor"/>
</g>
<g transform="translate(79.8070, 12.0281)">
<rect x="0.0000" y="-2.0000" width="0.2120" height="4.0000" ry="0.0000" fill="currentColor"/>
</g>
<g transform="translate(80.3538, 28.2271)">
<rect x="0.0000" y="-2.0000" width="0.6696" height="4.0000" ry="0.0000" fill="currentColor"/>
</g>
<g transform="translate(79.8070, 28.2271)">
<rect x="0.0000" y="-2.0000" width="0.2120" height="4.0000" ry="0.0000" fill="currentColor"/>
</g>
<g transform="translate(10.0421, 30.2271)">
<line stroke-linejoin="round" stroke-linecap="round" stroke-width="0.1116" stroke="currentColor" x1="0.0558" y1="0" x2="70.9255" y2="0"/>
</g>
<g transform="translate(10.0421, 29.2271)">
<line stroke-linejoin="round" stroke-linecap="round" stroke-width="0.1116" stroke="currentColor" x1="0.0558" y1="0" x2="70.9255" y2="0"/>
</g>
<g transform="translate(10.0421, 28.2271)">
<line stroke-linejoin="round" stroke-linecap="round" stroke-width="0.1116" stroke="currentColor" x1="0.0558" y1="0" x2="70.9255" y2="0"/>
</g>
<g transform="translate(10.0421, 27.2271)">
<line stroke-linejoin="round" stroke-linecap="round" stroke-width="0.1116" stroke="currentColor" x1="0.0558" y1="0" x2="70.9255" y2="0"/>
</g>
<g transform="translate(10.0421, 26.2271)">
<line stroke-linejoin="round" stroke-linecap="round" stroke-width="0.1116" stroke="currentColor" x1="0.0558" y1="0" x2="70.9255" y2="0"/>
</g>
<g transform="translate(10.0421, 25.2271)">
<rect x="52.1420" y="-0.1058" width="1.9542" height="0.2116" ry="0.1058" fill="currentColor"/>
</g>
<g transform="translate(10.0421, 25.2271)">
<rect x="40.9495" y="-0.1058" width="2.0709" height="0.2116" ry="0.1058" fill="currentColor"/>
</g>
<g transform="translate(10.0421, 25.2271)">
<rect x="36.4938" y="-0.1058" width="1.9542" height="0.2116" ry="0.1058" fill="currentColor"/>
</g>
<g transform="translate(59.2934, 28.2271)">
<rect x="-0.0725" y="-5.0000" width="0.1451" height="2.3206" ry="0.0471" fill="currentColor"/>
</g>
<g transform="translate(58.1356, 12.0281)">
<rect x="-0.0725" y="1.1794" width="0.1451" height="2.8206" ry="0.0471" fill="currentColor"/>
</g>
<g transform="translate(58.1356, 28.2271)">
<rect x="-0.0725" y="-0.8206" width="0.1451" height="3.3206" ry="0.0471" fill="currentColor"/>
</g>
<g transform="translate(64.6199, 22.1946)">
<rect x="0.0000" y="-0.5651" width="0.6600" height="0.1451" ry="0.0446" fill="currentColor"/>
</g>
<g transform="translate(62.5099, 13.5281)">
<path transform="scale(0.0040, -0.0040)" d="M215 137c67 0 111 -37 111 -92c0 -90 -111 -182 -215 -182c-67 0 -111 37 -111 92c0 90 111 182 215 182z" fill="currentColor"/>
</g>
<g transform="translate(59.2934, 12.0281)">
<rect x="-0.0725" y="-4.3333" width="0.1451" height="2.6540" ry="0.0471" fill="currentColor"/>
</g>
<g transform="translate(58.0631, 27.2271)">
<path transform="scale(0.0040, -0.0040)" d="M215 137c67 0 111 -37 111 -92c0 -90 -111 -182 -215 -182c-67 0 -111 37 -111 92c0 90 111 182 215 182z" fill="currentColor"/>
</g>
<g transform="translate(58.0631, 25.7271)">
<path transform="scale(0.0040, -0.0040)" d="M215 137c67 0 111 -37 111 -92c0 -90 -111 -182 -215 -182c-67 0 -111 37 -111 92c0 90 111 182 215 182z" fill="currentColor"/>
</g>
<g transform="translate(56.9471, 22.1946)">
<text font-family="Georgia Pro Cond" font-size="2.4690" text-anchor="start" fill="currentColor">
<tspan>och</tspan>
</text>
</g>
<g transform="translate(56.4651, 19.3946)">
<text font-family="Georgia Pro Cond" font-size="2.4690" text-anchor="start" fill="currentColor">
<tspan>nom</tspan>
</text>
</g>
<g transform="translate(58.0631, 13.0281)">
<path transform="scale(0.0040, -0.0040)" d="M215 137c67 0 111 -37 111 -92c0 -90 -111 -182 -215 -182c-67 0 -111 37 -111 92c0 90 111 182 215 182z" fill="currentColor"/>
</g>
<g transform="translate(58.0631, 10.5281)">
<path transform="scale(0.0040, -0.0040)" d="M215 137c67 0 111 -37 111 -92c0 -90 -111 -182 -215 -182c-67 0 -111 37 -111 92c0 90 111 182 215 182z" fill="currentColor"/>
</g>
<g transform="translate(64.6294, 12.0281)">
<rect x="-0.0725" y="2.1794" width="0.1451" height="2.3102" ry="0.0471" fill="currentColor"/>
</g>
<g transform="translate(64.5568, 14.0281)">
<path transform="scale(0.0040, -0.0040)" d="M215 137c67 0 111 -37 111 -92c0 -90 -111 -182 -215 -182c-67 0 -111 37 -111 92c0 90 111 182 215 182z" fill="currentColor"/>
</g>
<g transform="translate(62.5824, 28.2271)">
<rect x="-0.0725" y="-0.8206" width="0.1451" height="3.3206" ry="0.0471" fill="currentColor"/>
</g>
<g transform="translate(63.7401, 28.2271)">
<rect x="-0.0725" y="-5.5000" width="0.1451" height="2.3206" ry="0.0471" fill="currentColor"/>
</g>
<g transform="translate(62.5824, 12.0281)">
<rect x="-0.0725" y="1.6794" width="0.1451" height="2.5153" ry="0.0471" fill="currentColor"/>
</g>
<g transform="translate(63.7401, 12.0281)">
<rect x="-0.0725" y="-3.0000" width="0.1451" height="3.3206" ry="0.0471" fill="currentColor"/>
</g>
<g transform="translate(62.5099, 27.2271)">
<path transform="scale(0.0040, -0.0040)" d="M215 137c67 0 111 -37 111 -92c0 -90 -111 -182 -215 -182c-67 0 -111 37 -111 92c0 90 111 182 215 182z" fill="currentColor"/>
</g>
<g transform="translate(62.5099, 25.2271)">
<path transform="scale(0.0040, -0.0040)" d="M215 137c67 0 111 -37 111 -92c0 -90 -111 -182 -215 -182c-67 0 -111 37 -111 92c0 90 111 182 215 182z" fill="currentColor"/>
</g>
<g transform="translate(62.3981, 22.1946)">
<text font-family="Georgia Pro Cond" font-size="2.4690" text-anchor="start" fill="currentColor">
<tspan>A</tspan>
</text>
</g>
<g transform="translate(61.4139, 19.3946)">
<text font-family="Georgia Pro Cond" font-size="2.4690" text-anchor="start" fill="currentColor">
<tspan>ditt</tspan>
</text>
</g>
<g transform="translate(62.5099, 12.5281)">
<path transform="scale(0.0040, -0.0040)" d="M215 137c67 0 111 -37 111 -92c0 -90 -111 -182 -215 -182c-67 0 -111 37 -111 92c0 90 111 182 215 182z" fill="currentColor"/>
</g>
<g transform="translate(52.7899, 12.0281)">
<rect x="-0.0725" y="2.2530" width="0.1451" height="2.4137" ry="0.0471" fill="currentColor"/>
</g>
<g transform="translate(52.6449, 12.0281)">
<rect x="-0.0725" y="-2.0000" width="0.1451" height="3.2470" ry="0.0471" fill="currentColor"/>
</g>
<g transform="translate(51.3368, 26.2271)">
<path transform="scale(0.0040, -0.0040)" d="M215 137c67 0 111 -37 111 -92c0 -90 -111 -182 -215 -182c-67 0 -111 37 -111 92c0 90 111 182 215 182z" fill="currentColor"/>
</g>
<g transform="translate(51.3368, 25.2271)">
<path transform="scale(0.0040, -0.0040)" d="M312 64c0 23 -18 41 -41 41c-39 0 -201 -110 -228 -142c-7 -8 -10 -17 -10 -27c0 -23 18 -41 41 -41c39 0 201 110 228 142c7 8 10 17 10 27zM259 137c46 0 86 -17 86 -74c0 -26 -15 -112 -73 -151c-29 -20 -89 -49 -186 -49c-46 0 -86 17 -86 74c0 26 16 112 74 151
c29 20 88 49 185 49z" fill="currentColor"/>
</g>
<g transform="translate(49.8580, 22.1946)">
<text font-family="Georgia Pro Cond" font-size="2.4690" text-anchor="start" fill="currentColor">
<tspan>men</tspan>
</text>
</g>
<g transform="translate(50.9024, 19.3946)">
<text font-family="Georgia Pro Cond" font-size="2.4690" text-anchor="start" fill="currentColor">
<tspan>ge</tspan>
</text>
</g>
<g transform="translate(67.8559, 28.2271)">
<path stroke-width="0.0893" stroke-linejoin="round" stroke-linecap="round" stroke="currentColor" fill="currentColor" d="M-0.0071 1.5486C1.1070 2.9804 4.6884 3.6398 6.2393 2.6986L6.2393 2.6986C4.7126 3.5081 1.1312 2.8487 -0.0071 1.5486z"/>
</g>
<g transform="translate(52.7174, 14.0281)">
<path transform="scale(0.0040, -0.0040)" d="M312 64c0 23 -18 41 -41 41c-39 0 -201 -110 -228 -142c-7 -8 -10 -17 -10 -27c0 -23 18 -41 41 -41c39 0 201 110 228 142c7 8 10 17 10 27zM259 137c46 0 86 -17 86 -74c0 -26 -15 -112 -73 -151c-29 -20 -89 -49 -186 -49c-46 0 -86 17 -86 74c0 26 16 112 74 151
c29 20 88 49 185 49z" fill="currentColor"/>
</g>
<g transform="translate(51.3368, 13.5281)">
<path transform="scale(0.0040, -0.0040)" d="M312 64c0 23 -18 41 -41 41c-39 0 -201 -110 -228 -142c-7 -8 -10 -17 -10 -27c0 -23 18 -41 41 -41c39 0 201 110 228 142c7 8 10 17 10 27zM259 137c46 0 86 -17 86 -74c0 -26 -15 -112 -73 -151c-29 -20 -89 -49 -186 -49c-46 0 -86 17 -86 74c0 26 16 112 74 151
c29 20 88 49 185 49z" fill="currentColor"/>
</g>
<g transform="translate(48.2370, 28.2271)">
<rect x="-0.0725" y="-2.3206" width="0.1451" height="3.3206" ry="0.0471" fill="currentColor"/>
</g>
<g transform="translate(48.0919, 28.2271)">
<rect x="-0.0725" y="-5.5000" width="0.1451" height="2.3206" ry="0.0471" fill="currentColor"/>
</g>
<g transform="translate(56.3387, 28.2271)">
<rect x="-0.0725" y="-1.8206" width="0.1451" height="2.8267" ry="0.0471" fill="currentColor"/>
</g>
<g transform="translate(56.2661, 26.2271)">
<path transform="scale(0.0040, -0.0040)" d="M215 137c67 0 111 -37 111 -92c0 -90 -111 -182 -215 -182c-67 0 -111 37 -111 92c0 90 111 182 215 182z" fill="currentColor"/>
</g>
<g transform="translate(54.2917, 28.2271)">
<rect x="-0.0725" y="-1.3206" width="0.1451" height="2.4987" ry="0.0471" fill="currentColor"/>
</g>
<g transform="translate(54.2192, 26.7271)">
<path transform="scale(0.0040, -0.0040)" d="M215 137c67 0 111 -37 111 -92c0 -90 -111 -182 -215 -182c-67 0 -111 37 -111 92c0 90 111 182 215 182z" fill="currentColor"/>
</g>
<g transform="translate(51.4094, 28.2271)">
<rect x="-0.0725" y="-1.8206" width="0.1451" height="3.3206" ry="0.0471" fill="currentColor"/>
</g>
<g transform="translate(52.6449, 28.2271)">
<rect x="-0.0725" y="-5.5000" width="0.1451" height="2.2470" ry="0.0471" fill="currentColor"/>
</g>
<g transform="translate(54.2192, 29.4113)">
<polygon stroke-linejoin="round" stroke-linecap="round" stroke-width="0.0941" fill="currentColor" stroke="currentColor" points="2.1450 -0.3771 2.1450 0.0087 0.0471 0.1929 0.0471 -0.1929"/>
</g>
<g transform="translate(77.2775, 28.2271)">
<path transform="scale(0.0040, -0.0040)" d="M-8 78c0 59 125 83 125 182c0 25 -9 49 -26 69l-33 40c-3 4 -4 7 -4 11c0 9 9 17 18 17c4 0 8 -2 12 -6l150 -179c7 -9 11 -18 11 -26c0 -59 -125 -83 -125 -182c0 -25 8 -49 25 -69l82 -97c3 -4 4 -7 4 -11c0 -9 -8 -17 -17 -17c-10 0 -42 42 -106 42
c-19 0 -54 -1 -54 -66c0 -34 10 -73 27 -93c7 -9 -5 -20 -12 -11c-45 53 -93 147 -93 201c0 42 27 42 43 42c31 0 74 -11 113 -27l-129 154c-7 9 -11 18 -11 26z" fill="currentColor"/>
</g>
<g transform="translate(77.2775, 12.0281)">
<path transform="scale(0.0040, -0.0040)" d="M-8 78c0 59 125 83 125 182c0 25 -9 49 -26 69l-33 40c-3 4 -4 7 -4 11c0 9 9 17 18 17c4 0 8 -2 12 -6l150 -179c7 -9 11 -18 11 -26c0 -59 -125 -83 -125 -182c0 -25 8 -49 25 -69l82 -97c3 -4 4 -7 4 -11c0 -9 -8 -17 -17 -17c-10 0 -42 42 -106 42
c-19 0 -54 -1 -54 -66c0 -34 10 -73 27 -93c7 -9 -5 -20 -12 -11c-45 53 -93 147 -93 201c0 42 27 42 43 42c31 0 74 -11 113 -27l-129 154c-7 9 -11 18 -11 26z" fill="currentColor"/>
</g>
<g transform="translate(62.5099, 16.2123)">
<polygon stroke-linejoin="round" stroke-linecap="round" stroke-width="0.0941" fill="currentColor" stroke="currentColor" points="2.1450 0.1229 2.1450 0.5087 0.0471 0.1929 0.0471 -0.1929"/>
</g>
<g transform="translate(51.3368, 28.2271)">
<path stroke-width="0.0893" stroke-linejoin="round" stroke-linecap="round" stroke="currentColor" fill="currentColor" d="M0.4451 0.8207C1.2670 2.3641 3.6255 2.9181 4.9046 1.8682L4.9046 1.8682C3.6561 2.7877 1.2976 2.2337 0.4451 0.8207z"/>
</g>
<g transform="translate(54.4784, 19.3946)">
<rect x="0.0000" y="-0.5651" width="0.6600" height="0.1451" ry="0.0446" fill="currentColor"/>
</g>
<g transform="translate(48.7371, 22.1946)">
<rect x="0.0000" y="-0.5651" width="0.6600" height="0.1451" ry="0.0446" fill="currentColor"/>
</g>
<g transform="translate(49.0484, 19.3946)">
<rect x="0.0000" y="-0.5651" width="0.6600" height="0.1451" ry="0.0446" fill="currentColor"/>
</g>
<g transform="translate(37.8954, 28.2271)">
<path stroke-width="0.0893" stroke-linejoin="round" stroke-linecap="round" stroke="currentColor" fill="currentColor" d="M0.4451 0.5567C0.8566 1.3223 1.8255 1.6169 2.5823 1.2067L2.5823 1.2067C1.8645 1.4888 0.8956 1.1941 0.4451 0.5567z"/>
</g>
<g transform="translate(40.7370, 22.1946)">
<rect x="0.0000" y="-0.5651" width="0.6600" height="0.1451" ry="0.0446" fill="currentColor"/>
</g>
<g transform="translate(41.2692, 19.3946)">
<rect x="0.0000" y="-0.5651" width="0.6600" height="0.1451" ry="0.0446" fill="currentColor"/>
</g>
<g transform="translate(24.2221, 28.2271)">
<path stroke-width="0.0893" stroke-linejoin="round" stroke-linecap="round" stroke="currentColor" fill="currentColor" d="M0.4451 -1.4433C0.8566 -0.6777 1.8255 -0.3831 2.5823 -0.7933L2.5823 -0.7933C1.8645 -0.5112 0.8956 -0.8059 0.4451 -1.4433z"/>
</g>
<g transform="translate(26.7350, 19.3946)">
<rect x="0.0000" y="-0.5651" width="0.6600" height="0.1451" ry="0.0446" fill="currentColor"/>
</g>
<g transform="translate(67.9284, 12.0281)">
<rect x="-0.0725" y="2.7530" width="0.1451" height="2.2470" ry="0.0471" fill="currentColor"/>
</g>
<g transform="translate(69.6824, 14.5281)">
<path transform="scale(0.0040, -0.0040)" d="M0 0c0 31 25 56 56 56s55 -25 55 -56s-24 -56 -55 -56s-56 25 -56 56z" fill="currentColor"/>
</g>
<g transform="translate(69.1639, 12.0281)">
<rect x="-0.0725" y="-3.3333" width="0.1451" height="3.0804" ry="0.0471" fill="currentColor"/>
</g>
<g transform="translate(69.6824, 11.5281)">
<path transform="scale(0.0040, -0.0040)" d="M0 0c0 31 25 56 56 56s55 -25 55 -56s-24 -56 -55 -56s-56 25 -56 56z" fill="currentColor"/>
</g>
<g transform="translate(70.9852, 25.7271)">
<path transform="scale(0.0040, -0.0040)" d="M0 0c0 31 25 56 56 56s55 -25 55 -56s-24 -56 -55 -56s-56 25 -56 56z" fill="currentColor"/>
</g>
<g transform="translate(67.8559, 25.7271)">
<path transform="scale(0.0040, -0.0040)" d="M215 137c67 0 111 -37 111 -92c0 -90 -111 -182 -215 -182c-67 0 -111 37 -111 92c0 90 111 182 215 182z" fill="currentColor"/>
</g>
<g transform="translate(69.1587, 25.7271)">
<path transform="scale(0.0040, -0.0040)" d="M312 64c0 23 -18 41 -41 41c-39 0 -201 -110 -228 -142c-7 -8 -10 -17 -10 -27c0 -23 18 -41 41 -41c39 0 201 110 228 142c7 8 10 17 10 27zM259 137c46 0 86 -17 86 -74c0 -26 -15 -112 -73 -151c-29 -20 -89 -49 -186 -49c-46 0 -86 17 -86 74c0 26 16 112 74 151
c29 20 88 49 185 49z" fill="currentColor"/>
</g>
<g transform="translate(65.9754, 22.1946)">
<text font-family="Georgia Pro Cond" font-size="2.4690" text-anchor="start" fill="currentColor">
<tspan>men!</tspan>
</text>
</g>
<g transform="translate(65.9754, 19.3946)">
<text font-family="Georgia Pro Cond" font-size="2.4690" text-anchor="start" fill="currentColor">
<tspan>blod.</tspan>
</text>
</g>
<g transform="translate(67.8559, 14.5281)">
<path transform="scale(0.0040, -0.0040)" d="M312 64c0 23 -18 41 -41 41c-39 0 -201 -110 -228 -142c-7 -8 -10 -17 -10 -27c0 -23 18 -41 41 -41c39 0 201 110 228 142c7 8 10 17 10 27zM259 137c46 0 86 -17 86 -74c0 -26 -15 -112 -73 -151c-29 -20 -89 -49 -186 -49c-46 0 -86 17 -86 74c0 26 16 112 74 151
c29 20 88 49 185 49z" fill="currentColor"/>
</g>
<g transform="translate(67.8559, 12.0281)">
<path transform="scale(0.0040, -0.0040)" d="M312 64c0 23 -18 41 -41 41c-39 0 -201 -110 -228 -142c-7 -8 -10 -17 -10 -27c0 -23 18 -41 41 -41c39 0 201 110 228 142c7 8 10 17 10 27zM259 137c46 0 86 -17 86 -74c0 -26 -15 -112 -73 -151c-29 -20 -89 -49 -186 -49c-46 0 -86 17 -86 74c0 26 16 112 74 151
c29 20 88 49 185 49z" fill="currentColor"/>
</g>
<g transform="translate(74.4677, 28.2271)">
<rect x="-0.0725" y="1.1794" width="0.1451" height="2.8206" ry="0.0471" fill="currentColor"/>
</g>
<g transform="translate(74.3951, 29.2271)">
<path transform="scale(0.0040, -0.0040)" d="M215 137c67 0 111 -37 111 -92c0 -90 -111 -182 -215 -182c-67 0 -111 37 -111 92c0 90 111 182 215 182z" fill="currentColor"/>
</g>
<g transform="translate(71.8353, 28.2271)">
<rect x="-0.0725" y="-0.8206" width="0.1451" height="3.3206" ry="0.0471" fill="currentColor"/>
</g>
<g transform="translate(71.7628, 27.2271)">
<path transform="scale(0.0040, -0.0040)" d="M215 137c67 0 111 -37 111 -92c0 -90 -111 -182 -215 -182c-67 0 -111 37 -111 92c0 90 111 182 215 182z" fill="currentColor"/>
</g>
<g transform="translate(67.9284, 28.2271)">
<rect x="-0.0725" y="-2.3206" width="0.1451" height="3.3206" ry="0.0471" fill="currentColor"/>
</g>
<g transform="translate(70.4667, 28.2271)">
<rect x="-0.0725" y="-5.0000" width="0.1451" height="2.2470" ry="0.0471" fill="currentColor"/>
</g>
<g transform="translate(24.2947, 28.2271)">
<rect x="-0.0725" y="-2.3206" width="0.1451" height="3.3206" ry="0.0471" fill="currentColor"/>
</g>
<g transform="translate(27.1045, 26.2271)">
<path transform="scale(0.0040, -0.0040)" d="M215 137c67 0 111 -37 111 -92c0 -90 -111 -182 -215 -182c-67 0 -111 37 -111 92c0 90 111 182 215 182z" fill="currentColor"/>
</g>
<g transform="translate(24.1496, 28.2271)">
<rect x="-0.0725" y="-5.0000" width="0.1451" height="2.2470" ry="0.0471" fill="currentColor"/>
</g>
<g transform="translate(22.9141, 12.0281)">
<rect x="-0.0725" y="2.7530" width="0.1451" height="2.2470" ry="0.0471" fill="currentColor"/>
</g>
<g transform="translate(24.1496, 12.0281)">
<rect x="-0.0725" y="-2.0000" width="0.1451" height="3.2470" ry="0.0471" fill="currentColor"/>
</g>
<g transform="translate(30.0594, 28.2271)">
<rect x="-0.0725" y="-1.3206" width="0.1451" height="3.3206" ry="0.0471" fill="currentColor"/>
</g>
<g transform="translate(31.2171, 28.2271)">
<rect x="-0.0725" y="-5.0000" width="0.1451" height="2.3206" ry="0.0471" fill="currentColor"/>
</g>
<g transform="translate(30.0594, 12.0281)">
<rect x="-0.0725" y="2.6794" width="0.1451" height="2.3206" ry="0.0471" fill="currentColor"/>
</g>
<g transform="translate(24.2221, 25.7271)">
<path transform="scale(0.0040, -0.0040)" d="M215 137c67 0 111 -37 111 -92c0 -90 -111 -182 -215 -182c-67 0 -111 37 -111 92c0 90 111 182 215 182z" fill="currentColor"/>
</g>
<g transform="translate(31.2171, 12.0281)">
<rect x="-0.0725" y="-1.0000" width="0.1451" height="3.3206" ry="0.0471" fill="currentColor"/>
</g>
<g transform="translate(29.9868, 26.7271)">
<path transform="scale(0.0040, -0.0040)" d="M215 137c67 0 111 -37 111 -92c0 -90 -111 -182 -215 -182c-67 0 -111 37 -111 92c0 90 111 182 215 182z" fill="currentColor"/>
</g>
<g transform="translate(29.9868, 25.7271)">
<path transform="scale(0.0040, -0.0040)" d="M215 137c67 0 111 -37 111 -92c0 -90 -111 -182 -215 -182c-67 0 -111 37 -111 92c0 90 111 182 215 182z" fill="currentColor"/>
</g>
<g transform="translate(28.8708, 22.1946)">
<text font-family="Georgia Pro Cond" font-size="2.4690" text-anchor="start" fill="currentColor">
<tspan>och</tspan>
</text>
</g>
<g transform="translate(28.3888, 19.3946)">
<text font-family="Georgia Pro Cond" font-size="2.4690" text-anchor="start" fill="currentColor">
<tspan>ning</tspan>
</text>
</g>
<g transform="translate(29.9868, 14.5281)">
<path transform="scale(0.0040, -0.0040)" d="M215 137c67 0 111 -37 111 -92c0 -90 -111 -182 -215 -182c-67 0 -111 37 -111 92c0 90 111 182 215 182z" fill="currentColor"/>
</g>
<g transform="translate(29.9868, 14.5281)">
<path transform="scale(0.0040, -0.0040)" d="M215 137c67 0 111 -37 111 -92c0 -90 -111 -182 -215 -182c-67 0 -111 37 -111 92c0 90 111 182 215 182z" fill="currentColor"/>
</g>
<g transform="translate(27.1770, 28.2271)">
<rect x="-0.0725" y="-1.8206" width="0.1451" height="3.3206" ry="0.0471" fill="currentColor"/>
</g>
<g transform="translate(10.8421, 13.0281)">
<path transform="scale(0.0040, -0.0040)" d="M646 2c0 -113 -74 -213 -180 -247c3 -34 5 -68 5 -102c0 -20 -1 -40 -2 -60c-7 -121 -91 -228 -209 -228c-108 0 -196 87 -196 196c0 58 53 104 112 104c54 0 95 -48 95 -104c0 -52 -43 -95 -95 -95c-10 0 -20 2 -29 6c26 -38 68 -63 116 -63h3c93 2 153 92 159 190
c1 19 2 37 2 56c0 30 -2 60 -4 90c-5 -1 -43 -8 -88 -8c-194 0 -333 180 -333 375c0 177 130 307 246 442c-31 98 -53 170 -53 347c0 115 55 223 148 290c7 5 16 4 22 -1c68 -80 134 -243 134 -357c0 -143 -85 -255 -178 -364c21 -68 40 -137 57 -206c1 0 5 1 11 1
c156 0 257 -129 257 -262zM462 -202c66 24 111 88 111 162c0 89 -65 178 -170 190c28 -135 50 -272 59 -352zM75 26c0 -145 141 -245 263 -245c1 0 46 0 81 6c-7 65 -27 206 -61 363c-79 -8 -124 -61 -124 -119c0 -43 25 -89 80 -121c5 -5 7 -11 7 -16
c0 -12 -10 -23 -22 -23c-16 0 -127 63 -127 188c0 89 58 175 161 198c-14 58 -29 116 -46 173c-106 -122 -212 -244 -212 -404zM406 1042c-99 -47 -162 -148 -162 -257c0 -49 13 -111 38 -191c79 97 144 199 144 324c0 33 0 63 -20 124z" fill="currentColor"/>
</g>
<g transform="translate(18.7015, 14.5281)">
<path transform="scale(0.0040, -0.0040)" d="M215 137c67 0 111 -37 111 -92c0 -90 -111 -182 -215 -182c-67 0 -111 37 -111 92c0 90 111 182 215 182z" fill="currentColor"/>
</g>
<g transform="translate(18.7015, 13.5281)">
<path transform="scale(0.0040, -0.0040)" d="M215 137c67 0 111 -37 111 -92c0 -90 -111 -182 -215 -182c-67 0 -111 37 -111 92c0 90 111 182 215 182z" fill="currentColor"/>
</g>
<g transform="translate(14.4718, 29.2271)">
<path transform="scale(0.0040, -0.0040)" d="M29 39l-2 -64v-11c0 -22 2 -43 5 -65c44 38 91 80 91 138c0 33 -13 66 -42 66c-31 0 -51 -31 -52 -64zM-28 454c9 5 18 8 28 8s19 -3 28 -8l-7 -343c25 23 58 36 92 36c51 0 87 -49 87 -103c0 -79 -84 -117 -144 -169c-16 -14 -25 -41 -47 -41c-14 0 -25 13 -25 27z" fill="currentColor"/>
</g>
<g transform="translate(15.4015, 27.7271)">
<path transform="scale(0.0040, -0.0040)" d="M29 39l-2 -64v-11c0 -22 2 -43 5 -65c44 38 91 80 91 138c0 33 -13 66 -42 66c-31 0 -51 -31 -52 -64zM-28 454c9 5 18 8 28 8s19 -3 28 -8l-7 -343c25 23 58 36 92 36c51 0 87 -49 87 -103c0 -79 -84 -117 -144 -169c-16 -14 -25 -41 -47 -41c-14 0 -25 13 -25 27z" fill="currentColor"/>
</g>
<g transform="translate(10.8421, 27.2271)">
<path transform="scale(0.0040, -0.0040)" d="M558 -125c0 28 22 51 50 51s51 -23 51 -51s-23 -51 -51 -51s-50 23 -50 51zM558 125c0 28 22 51 50 51s51 -23 51 -51s-23 -51 -51 -51s-50 23 -50 51zM231 264c172 0 294 -88 294 -251c0 -263 -262 -416 -515 -523c-3 -3 -7 -4 -10 -4c-7 0 -14 7 -14 14c0 3 1 7 4 10
c201 118 410 265 410 492c0 119 -61 234 -169 234c-72 0 -124 -53 -148 -123c10 4 19 6 29 6c55 0 100 -45 100 -100c0 -58 -44 -106 -100 -106c-60 0 -112 47 -112 106c0 133 101 245 231 245z" fill="currentColor"/>
</g>
<g transform="translate(14.4718, 12.0281)">
<path transform="scale(0.0040, -0.0040)" d="M29 39l-2 -64v-11c0 -22 2 -43 5 -65c44 38 91 80 91 138c0 33 -13 66 -42 66c-31 0 -51 -31 -52 -64zM-28 454c9 5 18 8 28 8s19 -3 28 -8l-7 -343c25 23 58 36 92 36c51 0 87 -49 87 -103c0 -79 -84 -117 -144 -169c-16 -14 -25 -41 -47 -41c-14 0 -25 13 -25 27z" fill="currentColor"/>
</g>
<g transform="translate(15.4015, 10.5281)">
<path transform="scale(0.0040, -0.0040)" d="M29 39l-2 -64v-11c0 -22 2 -43 5 -65c44 38 91 80 91 138c0 33 -13 66 -42 66c-31 0 -51 -31 -52 -64zM-28 454c9 5 18 8 28 8s19 -3 28 -8l-7 -343c25 23 58 36 92 36c51 0 87 -49 87 -103c0 -79 -84 -117 -144 -169c-16 -14 -25 -41 -47 -41c-14 0 -25 13 -25 27z" fill="currentColor"/>
</g>
<g transform="translate(18.4089, 19.3946)">
<text font-family="Georgia Pro Cond" font-size="2.4690" text-anchor="start" fill="currentColor">
<tspan>ty</tspan>
</text>
</g>
<g transform="translate(9.9636, 20.1276)">
<rect x="0.0000" y="-10.1553" width="0.1786" height="20.3106" ry="0.0558" fill="currentColor"/>
</g>
<g transform="translate(8.7136, 9.7473)">
<path transform="scale(0.0040, -0.0040)" d="M0 -56v85c0 15 12 27 27 27h54c157 0 265 136 353 268c12 18 40 0 28 -18c-96 -144 -210 -362 -381 -362h-81z" fill="currentColor"/>
</g>
<g transform="translate(8.7136, 30.5079)">
<path transform="scale(0.0040, -0.0040)" d="M0 56h81c171 0 285 -218 381 -362c12 -18 -16 -36 -28 -18c-88 132 -196 268 -353 268h-54c-15 0 -27 12 -27 27v85z" fill="currentColor"/>
</g>
<g transform="translate(8.7136, 20.1276)">
<rect x="0.0000" y="-10.2003" width="0.4500" height="20.4006" ry="0.0000" fill="currentColor"/>
</g>
<g transform="translate(22.8416, 25.7271)">
<path transform="scale(0.0040, -0.0040)" d="M312 64c0 23 -18 41 -41 41c-39 0 -201 -110 -228 -142c-7 -8 -10 -17 -10 -27c0 -23 18 -41 41 -41c39 0 201 110 228 142c7 8 10 17 10 27zM259 137c46 0 86 -17 86 -74c0 -26 -15 -112 -73 -151c-29 -20 -89 -49 -186 -49c-46 0 -86 17 -86 74c0 26 16 112 74 151
c29 20 88 49 185 49z" fill="currentColor"/>
</g>
<g transform="translate(21.4029, 22.1946)">
<text font-family="Georgia Pro Cond" font-size="2.4690" text-anchor="start" fill="currentColor">
<tspan>Gud</tspan>
</text>
</g>
<g transform="translate(21.3226, 19.3946)">
<text font-family="Georgia Pro Cond" font-size="2.4690" text-anchor="start" fill="currentColor">
<tspan>fräls</tspan>
</text>
</g>
<g transform="translate(22.8416, 14.5281)">
<path transform="scale(0.0040, -0.0040)" d="M312 64c0 23 -18 41 -41 41c-39 0 -201 -110 -228 -142c-7 -8 -10 -17 -10 -27c0 -23 18 -41 41 -41c39 0 201 110 228 142c7 8 10 17 10 27zM259 137c46 0 86 -17 86 -74c0 -26 -15 -112 -73 -151c-29 -20 -89 -49 -186 -49c-46 0 -86 17 -86 74c0 26 16 112 74 151
c29 20 88 49 185 49z" fill="currentColor"/>
</g>
<g transform="translate(22.8416, 13.5281)">
<path transform="scale(0.0040, -0.0040)" d="M312 64c0 23 -18 41 -41 41c-39 0 -201 -110 -228 -142c-7 -8 -10 -17 -10 -27c0 -23 18 -41 41 -41c39 0 201 110 228 142c7 8 10 17 10 27zM259 137c46 0 86 -17 86 -74c0 -26 -15 -112 -73 -151c-29 -20 -89 -49 -186 -49c-46 0 -86 17 -86 74c0 26 16 112 74 151
c29 20 88 49 185 49z" fill="currentColor"/>
</g>
<g transform="translate(18.7740, 28.2271)">
<rect x="-0.0725" y="-2.3206" width="0.1451" height="3.3206" ry="0.0471" fill="currentColor"/>
</g>
<g transform="translate(19.9317, 28.2271)">
<rect x="-0.0725" y="-5.0000" width="0.1451" height="2.3206" ry="0.0471" fill="currentColor"/>
</g>
<g transform="translate(18.7740, 12.0281)">
<rect x="-0.0725" y="2.6794" width="0.1451" height="2.3206" ry="0.0471" fill="currentColor"/>
</g>
<g transform="translate(19.9317, 12.0281)">
<rect x="-0.0725" y="-2.0000" width="0.1451" height="3.3206" ry="0.0471" fill="currentColor"/>
</g>
<g transform="translate(18.7015, 25.7271)">
<path transform="scale(0.0040, -0.0040)" d="M215 137c67 0 111 -37 111 -92c0 -90 -111 -182 -215 -182c-67 0 -111 37 -111 92c0 90 111 182 215 182z" fill="currentColor"/>
</g>
<g transform="translate(18.7015, 25.7271)">
<path transform="scale(0.0040, -0.0040)" d="M215 137c67 0 111 -37 111 -92c0 -90 -111 -182 -215 -182c-67 0 -111 37 -111 92c0 90 111 182 215 182z" fill="currentColor"/>
</g>
<g transform="translate(17.7662, 22.1946)">
<text font-family="Georgia Pro Cond" font-size="2.4690" text-anchor="start" fill="currentColor">
<tspan>vår</tspan>
</text>
</g>
<g transform="translate(40.8503, 28.2271)">
<rect x="-0.0725" y="0.1794" width="0.1451" height="3.1540" ry="0.0471" fill="currentColor"/>
</g>
<g transform="translate(40.7777, 28.2271)">
<path transform="scale(0.0040, -0.0040)" d="M215 137c67 0 111 -37 111 -92c0 -90 -111 -182 -215 -182c-67 0 -111 37 -111 92c0 90 111 182 215 182z" fill="currentColor"/>
</g>
<g transform="translate(46.8616, 13.0281)">
<path transform="scale(0.0040, -0.0040)" d="M215 137c67 0 111 -37 111 -92c0 -90 -111 -182 -215 -182c-67 0 -111 37 -111 92c0 90 111 182 215 182z" fill="currentColor"/>
</g>
<g transform="translate(46.8616, 14.0281)">
<path transform="scale(0.0040, -0.0040)" d="M215 137c67 0 111 -37 111 -92c0 -90 -111 -182 -215 -182c-67 0 -111 37 -111 92c0 90 111 182 215 182z" fill="currentColor"/>
</g>
<g transform="translate(47.1716, 19.3946)">
<text font-family="Georgia Pro Cond" font-size="2.4690" text-anchor="start" fill="currentColor">
<tspan>i</tspan>
</text>
</g>
<g transform="translate(46.7498, 22.1946)">
<text font-family="Georgia Pro Cond" font-size="2.4690" text-anchor="start" fill="currentColor">
<tspan>A</tspan>
</text>
</g>
<g transform="translate(46.8616, 25.2271)">
<path transform="scale(0.0040, -0.0040)" d="M215 137c67 0 111 -37 111 -92c0 -90 -111 -182 -215 -182c-67 0 -111 37 -111 92c0 90 111 182 215 182z" fill="currentColor"/>
</g>
<g transform="translate(37.9679, 28.2271)">
<rect x="-0.0725" y="-0.3206" width="0.1451" height="3.3206" ry="0.0471" fill="currentColor"/>
</g>
<g transform="translate(39.2034, 28.2271)">
<rect x="-0.0725" y="-5.0000" width="0.1451" height="2.2470" ry="0.0471" fill="currentColor"/>
</g>
<g transform="translate(43.7326, 12.0281)">
<rect x="-0.0725" y="2.1794" width="0.1451" height="2.4873" ry="0.0471" fill="currentColor"/>
</g>
<g transform="translate(43.7326, 28.2271)">
<rect x="-0.0725" y="0.6794" width="0.1451" height="2.9873" ry="0.0471" fill="currentColor"/>
</g>
<g transform="translate(44.8903, 28.2271)">
<rect x="-0.0725" y="-5.0000" width="0.1451" height="2.3206" ry="0.0471" fill="currentColor"/>
</g>
<g transform="translate(44.8903, 12.0281)">
<rect x="-0.0725" y="-1.5000" width="0.1451" height="3.3206" ry="0.0471" fill="currentColor"/>
</g>
<g transform="translate(43.6601, 28.7271)">
<path transform="scale(0.0040, -0.0040)" d="M215 137c67 0 111 -37 111 -92c0 -90 -111 -182 -215 -182c-67 0 -111 37 -111 92c0 90 111 182 215 182z" fill="currentColor"/>
</g>
<g transform="translate(43.6601, 25.7271)">
<path transform="scale(0.0040, -0.0040)" d="M215 137c67 0 111 -37 111 -92c0 -90 -111 -182 -215 -182c-67 0 -111 37 -111 92c0 90 111 182 215 182z" fill="currentColor"/>
</g>
<g transform="translate(42.3231, 22.1946)">
<text font-family="Georgia Pro Cond" font-size="2.4690" text-anchor="start" fill="currentColor">
<tspan>der.</tspan>
</text>
</g>
<g transform="translate(42.9256, 19.3946)">
<text font-family="Georgia Pro Cond" font-size="2.4690" text-anchor="start" fill="currentColor">
<tspan>nit</tspan>
</text>
</g>
<g transform="translate(43.6601, 14.0281)">
<path transform="scale(0.0040, -0.0040)" d="M215 137c67 0 111 -37 111 -92c0 -90 -111 -182 -215 -182c-67 0 -111 37 -111 92c0 90 111 182 215 182z" fill="currentColor"/>
</g>
<g transform="translate(43.6601, 14.0281)">
<path transform="scale(0.0040, -0.0040)" d="M215 137c67 0 111 -37 111 -92c0 -90 -111 -182 -215 -182c-67 0 -111 37 -111 92c0 90 111 182 215 182z" fill="currentColor"/>
</g>
<g transform="translate(33.8634, 12.0281)">
<rect x="-0.0725" y="2.6794" width="0.1451" height="2.3206" ry="0.0471" fill="currentColor"/>
</g>
<g transform="translate(46.9341, 12.0281)">
<rect x="-0.0725" y="2.1794" width="0.1451" height="2.4873" ry="0.0471" fill="currentColor"/>
</g>
<g transform="translate(33.8634, 28.2271)">
<rect x="-0.0725" y="-0.8206" width="0.1451" height="3.3206" ry="0.0471" fill="currentColor"/>
</g>
<g transform="translate(35.0212, 28.2271)">
<rect x="-0.0725" y="-5.0000" width="0.1451" height="2.3206" ry="0.0471" fill="currentColor"/>
</g>
<g transform="translate(35.0212, 12.0281)">
<rect x="-0.0725" y="-2.0000" width="0.1451" height="3.3206" ry="0.0471" fill="currentColor"/>
</g>
<g transform="translate(33.7909, 27.2271)">
<path transform="scale(0.0040, -0.0040)" d="M215 137c67 0 111 -37 111 -92c0 -90 -111 -182 -215 -182c-67 0 -111 37 -111 92c0 90 111 182 215 182z" fill="currentColor"/>
</g>
<g transform="translate(33.7909, 25.7271)">
<path transform="scale(0.0040, -0.0040)" d="M215 137c67 0 111 -37 111 -92c0 -90 -111 -182 -215 -182c-67 0 -111 37 -111 92c0 90 111 182 215 182z" fill="currentColor"/>
</g>
<g transform="translate(32.8556, 22.1946)">
<text font-family="Georgia Pro Cond" font-size="2.4690" text-anchor="start" fill="currentColor">
<tspan>vår</tspan>
</text>
</g>
<g transform="translate(33.5385, 19.3946)">
<text font-family="Georgia Pro Cond" font-size="2.4690" text-anchor="start" fill="currentColor">
<tspan>vi</tspan>
</text>
</g>
<g transform="translate(33.7909, 14.5281)">
<path transform="scale(0.0040, -0.0040)" d="M215 137c67 0 111 -37 111 -92c0 -90 -111 -182 -215 -182c-67 0 -111 37 -111 92c0 90 111 182 215 182z" fill="currentColor"/>
</g>
<g transform="translate(33.7909, 13.5281)">
<path transform="scale(0.0040, -0.0040)" d="M215 137c67 0 111 -37 111 -92c0 -90 -111 -182 -215 -182c-67 0 -111 37 -111 92c0 90 111 182 215 182z" fill="currentColor"/>
</g>
<g transform="translate(37.9679, 12.0281)">
<rect x="-0.0725" y="2.2530" width="0.1451" height="2.4137" ry="0.0471" fill="currentColor"/>
</g>
<g transform="translate(39.2034, 12.0281)">
<rect x="-0.0725" y="-2.5000" width="0.1451" height="3.2470" ry="0.0471" fill="currentColor"/>
</g>
<g transform="translate(48.1644, 25.7271)">
<path transform="scale(0.0040, -0.0040)" d="M215 137c67 0 111 -37 111 -92c0 -90 -111 -182 -215 -182c-67 0 -111 37 -111 92c0 90 111 182 215 182z" fill="currentColor"/>
</g>
<g transform="translate(37.8954, 27.7271)">
<path transform="scale(0.0040, -0.0040)" d="M215 137c67 0 111 -37 111 -92c0 -90 -111 -182 -215 -182c-67 0 -111 37 -111 92c0 90 111 182 215 182z" fill="currentColor"/>
</g>
<g transform="translate(37.8954, 25.7271)">
<path transform="scale(0.0040, -0.0040)" d="M312 64c0 23 -18 41 -41 41c-39 0 -201 -110 -228 -142c-7 -8 -10 -17 -10 -27c0 -23 18 -41 41 -41c39 0 201 110 228 142c7 8 10 17 10 27zM259 137c46 0 86 -17 86 -74c0 -26 -15 -112 -73 -151c-29 -20 -89 -49 -186 -49c-46 0 -86 17 -86 74c0 26 16 112 74 151
c29 20 88 49 185 49z" fill="currentColor"/>
</g>
<g transform="translate(37.3605, 22.1946)">
<text font-family="Georgia Pro Cond" font-size="2.4690" text-anchor="start" fill="currentColor">
<tspan>Fa</tspan>
</text>
</g>
<g transform="translate(36.8986, 19.3946)">
<text font-family="Georgia Pro Cond" font-size="2.4690" text-anchor="start" fill="currentColor">
<tspan>fun</tspan>
</text>
</g>
<g transform="translate(37.8954, 14.0281)">
<path transform="scale(0.0040, -0.0040)" d="M312 64c0 23 -18 41 -41 41c-39 0 -201 -110 -228 -142c-7 -8 -10 -17 -10 -27c0 -23 18 -41 41 -41c39 0 201 110 228 142c7 8 10 17 10 27zM259 137c46 0 86 -17 86 -74c0 -26 -15 -112 -73 -151c-29 -20 -89 -49 -186 -49c-46 0 -86 17 -86 74c0 26 16 112 74 151
c29 20 88 49 185 49z" fill="currentColor"/>
</g>
<g transform="translate(48.0919, 12.0281)">
<rect x="-0.0725" y="-2.5000" width="0.1451" height="3.3206" ry="0.0471" fill="currentColor"/>
</g>
<g transform="translate(37.8954, 13.0281)">
<path transform="scale(0.0040, -0.0040)" d="M312 64c0 23 -18 41 -41 41c-39 0 -201 -110 -228 -142c-7 -8 -10 -17 -10 -27c0 -23 18 -41 41 -41c39 0 201 110 228 142c7 8 10 17 10 27zM259 137c46 0 86 -17 86 -74c0 -26 -15 -112 -73 -151c-29 -20 -89 -49 -186 -49c-46 0 -86 17 -86 74c0 26 16 112 74 151
c29 20 88 49 185 49z" fill="currentColor"/>
</g>
<g transform="translate(22.6421, 65.4765)">
<text font-family="Fira Sans Extra Condensed" font-style="italic" font-size="2.3994" text-anchor="start" fill="currentColor">
<tspan>Han</tspan>
</text>
</g>
<g transform="translate(26.9116, 65.4765)">
<text font-family="Fira Sans Extra Condensed" font-style="italic" font-size="2.3994" text-anchor="start" fill="currentColor">
<tspan>är</tspan>
</text>
</g>
<g transform="translate(29.4940, 65.4765)">
<text font-family="Fira Sans Extra Condensed" font-style="italic" font-size="2.3994" text-anchor="start" fill="currentColor">
<tspan>huvudet</tspan>
</text>
</g>
<g transform="translate(37.4590, 65.4765)">
<text font-family="Fira Sans Extra Condensed" font-style="italic" font-size="2.3994" text-anchor="start" fill="currentColor">
<tspan>för</tspan>
</text>
</g>
<g transform="translate(40.6439, 65.4765)">
<text font-family="Fira Sans Extra Condensed" font-style="italic" font-size="2.3994" text-anchor="start" fill="currentColor">
<tspan>sin</tspan>
</text>
</g>
<g transform="translate(43.9092, 65.4765)">
<text font-family="Fira Sans Extra Condensed" font-style="italic" font-size="2.3994" text-anchor="start" fill="currentColor">
<tspan>kropp,</tspan>
</text>
</g>
<g transform="translate(50.2674, 65.4765)">
<text font-family="Fira Sans Extra Condensed" font-style="italic" font-size="2.3994" text-anchor="start" fill="currentColor">
<tspan>församlingen.</tspan>
</text>
</g>
<g transform="translate(63.2535, 65.4765)">
<text font-family="Fira Sans Extra Condensed" font-style="italic" font-size="2.3994" text-anchor="start" fill="currentColor">
<tspan>Han</tspan>
</text>
</g>
<g transform="translate(67.5230, 65.4765)">
<text font-family="Fira Sans Extra Condensed" font-style="italic" font-size="2.3994" text-anchor="start" fill="currentColor">
<tspan>är</tspan>
</text>
</g>
<g transform="translate(22.6421, 68.7480)">
<text font-family="Fira Sans Extra Condensed" font-style="italic" font-size="2.3994" text-anchor="start" fill="currentColor">
<tspan>begynnelsen,</tspan>
</text>
</g>
<g transform="translate(35.1060, 68.7480)">
<text font-family="Fira Sans Extra Condensed" font-style="italic" font-size="2.3994" text-anchor="start" fill="currentColor">
<tspan>den</tspan>
</text>
</g>
<g transform="translate(39.0943, 68.7480)">
<text font-family="Fira Sans Extra Condensed" font-style="italic" font-size="2.3994" text-anchor="start" fill="currentColor">
<tspan>förstfödde</tspan>
</text>
</g>
<g transform="translate(49.0276, 68.7480)">
<text font-family="Fira Sans Extra Condensed" font-style="italic" font-size="2.3994" text-anchor="start" fill="currentColor">
<tspan>från</tspan>
</text>
</g>
<g transform="translate(53.2970, 68.7480)">
<text font-family="Fira Sans Extra Condensed" font-style="italic" font-size="2.3994" text-anchor="start" fill="currentColor">
<tspan>de</tspan>
</text>
</g>
<g transform="translate(56.1606, 68.7480)">
<text font-family="Fira Sans Extra Condensed" font-style="italic" font-size="2.3994" text-anchor="start" fill="currentColor">
<tspan>döda,</tspan>
</text>
</g>
<g transform="translate(61.9565, 68.7480)">
<text font-family="Fira Sans Extra Condensed" font-style="italic" font-size="2.3994" text-anchor="start" fill="currentColor">
<tspan>för</tspan>
</text>
</g>
<g transform="translate(65.1414, 68.7480)">
<text font-family="Fira Sans Extra Condensed" font-style="italic" font-size="2.3994" text-anchor="start" fill="currentColor">
<tspan>att</tspan>
</text>
</g>
<g transform="translate(68.4067, 68.7480)">
<text font-family="Fira Sans Extra Condensed" font-style="italic" font-size="2.3994" text-anchor="start" fill="currentColor">
<tspan>han</tspan>
</text>
</g>
<g transform="translate(72.4753, 68.7480)">
<text font-family="Fira Sans Extra Condensed" font-style="italic" font-size="2.3994" text-anchor="start" fill="currentColor">
<tspan>i</tspan>
</text>
</g>
<g transform="translate(73.6920, 68.7480)">
<text font-family="Fira Sans Extra Condensed" font-style="italic" font-size="2.3994" text-anchor="start" fill="currentColor">
<tspan>allt</tspan>
</text>
</g>
<g transform="translate(22.6421, 72.0195)">
<text font-family="Fira Sans Extra Condensed" font-style="italic" font-size="2.3994" text-anchor="start" fill="currentColor">
<tspan>skulle</tspan>
</text>
</g>
<g transform="translate(28.5987, 72.0195)">
<text font-family="Fira Sans Extra Condensed" font-style="italic" font-size="2.3994" text-anchor="start" fill="currentColor">
<tspan>vara</tspan>
</text>
</g>
<g transform="translate(33.2297, 72.0195)">
<text font-family="Fira Sans Extra Condensed" font-style="italic" font-size="2.3994" text-anchor="start" fill="currentColor">
<tspan>den</tspan>
</text>
</g>
<g transform="translate(37.2180, 72.0195)">
<text font-family="Fira Sans Extra Condensed" font-style="italic" font-size="2.3994" text-anchor="start" fill="currentColor">
<tspan>främste.</tspan>
</text>
</g>
<g transform="translate(45.1830, 72.0195)">
<text font-family="Fira Sans Extra Condensed" font-style="italic" font-size="2.3994" text-anchor="start" fill="currentColor">
<tspan>Ty</tspan>
</text>
</g>
<g transform="translate(47.7654, 72.0195)">
<text font-family="Fira Sans Extra Condensed" font-style="italic" font-size="2.3994" text-anchor="start" fill="currentColor">
<tspan>Gud</tspan>
</text>
</g>
<g transform="translate(51.9545, 72.0195)">
<text font-family="Fira Sans Extra Condensed" font-style="italic" font-size="2.3994" text-anchor="start" fill="currentColor">
<tspan>beslöt</tspan>
</text>
</g>
<g transform="translate(58.1923, 72.0195)">
<text font-family="Fira Sans Extra Condensed" font-style="italic" font-size="2.3994" text-anchor="start" fill="currentColor">
<tspan>att</tspan>
</text>
</g>
<g transform="translate(61.4575, 72.0195)">
<text font-family="Fira Sans Extra Condensed" font-style="italic" font-size="2.3994" text-anchor="start" fill="currentColor">
<tspan>låta</tspan>
</text>
</g>
<g transform="translate(65.6868, 72.0195)">
<text font-family="Fira Sans Extra Condensed" font-style="italic" font-size="2.3994" text-anchor="start" fill="currentColor">
<tspan>hela</tspan>
</text>
</g>
<g transform="translate(22.6421, 75.2910)">
<text font-family="Fira Sans Extra Condensed" font-style="italic" font-size="2.3994" text-anchor="start" fill="currentColor">
<tspan>fullheten</tspan>
</text>
</g>
<g transform="translate(31.2097, 75.2910)">
<text font-family="Fira Sans Extra Condensed" font-style="italic" font-size="2.3994" text-anchor="start" fill="currentColor">
<tspan>bo</tspan>
</text>
</g>
<g transform="translate(34.1938, 75.2910)">
<text font-family="Fira Sans Extra Condensed" font-style="italic" font-size="2.3994" text-anchor="start" fill="currentColor">
<tspan>i</tspan>
</text>
</g>
<g transform="translate(35.4104, 75.2910)">
<text font-family="Fira Sans Extra Condensed" font-style="italic" font-size="2.3994" text-anchor="start" fill="currentColor">
<tspan>honom</tspan>
</text>
</g>
<g transform="translate(42.3310, 75.2910)">
<text font-family="Fira Sans Extra Condensed" font-style="italic" font-size="2.3994" text-anchor="start" fill="currentColor">
<tspan>och</tspan>
</text>
</g>
<g transform="translate(46.1988, 75.2910)">
<text font-family="Fira Sans Extra Condensed" font-style="italic" font-size="2.3994" text-anchor="start" fill="currentColor">
<tspan>genom</tspan>
</text>
</g>
<g transform="translate(53.0391, 75.2910)">
<text font-family="Fira Sans Extra Condensed" font-style="italic" font-size="2.3994" text-anchor="start" fill="currentColor">
<tspan>honom</tspan>
</text>
</g>
<g transform="translate(59.9597, 75.2910)">
<text font-family="Fira Sans Extra Condensed" font-style="italic" font-size="2.3994" text-anchor="start" fill="currentColor">
<tspan>försona</tspan>
</text>
</g>
<g transform="translate(67.4828, 75.2910)">
<text font-family="Fira Sans Extra Condensed" font-style="italic" font-size="2.3994" text-anchor="start" fill="currentColor">
<tspan>allt</tspan>
</text>
</g>
<g transform="translate(71.1498, 75.2910)">
<text font-family="Fira Sans Extra Condensed" font-style="italic" font-size="2.3994" text-anchor="start" fill="currentColor">
<tspan>med</tspan>
</text>
</g>
<g transform="translate(22.6421, 78.5625)">
<text font-family="Fira Sans Extra Condensed" font-style="italic" font-size="2.3994" text-anchor="start" fill="currentColor">
<tspan>sig,</tspan>
</text>
</g>
<g transform="translate(26.4296, 78.5625)">
<text font-family="Fira Sans Extra Condensed" font-style="italic" font-size="2.3994" text-anchor="start" fill="currentColor">
<tspan>sedan</tspan>
</text>
</g>
<g transform="translate(32.5067, 78.5625)">
<text font-family="Fira Sans Extra Condensed" font-style="italic" font-size="2.3994" text-anchor="start" fill="currentColor">
<tspan>han</tspan>
</text>
</g>
<g transform="translate(36.5753, 78.5625)">
<text font-family="Fira Sans Extra Condensed" font-style="italic" font-size="2.3994" text-anchor="start" fill="currentColor">
<tspan>skapat</tspan>
</text>
</g>
<g transform="translate(43.4557, 78.5625)">
<text font-family="Fira Sans Extra Condensed" font-style="italic" font-size="2.3994" text-anchor="start" fill="currentColor">
<tspan>frid</tspan>
</text>
</g>
<g transform="translate(47.2432, 78.5625)">
<text font-family="Fira Sans Extra Condensed" font-style="italic" font-size="2.3994" text-anchor="start" fill="currentColor">
<tspan>i</tspan>
</text>
</g>
<g transform="translate(48.4599, 78.5625)">
<text font-family="Fira Sans Extra Condensed" font-style="italic" font-size="2.3994" text-anchor="start" fill="currentColor">
<tspan>kraft</tspan>
</text>
</g>
<g transform="translate(53.4122, 78.5625)">
<text font-family="Fira Sans Extra Condensed" font-style="italic" font-size="2.3994" text-anchor="start" fill="currentColor">
<tspan>av</tspan>
</text>
</g>
<g transform="translate(56.1954, 78.5625)">
<text font-family="Fira Sans Extra Condensed" font-style="italic" font-size="2.3994" text-anchor="start" fill="currentColor">
<tspan>blodet</tspan>
</text>
</g>
<g transform="translate(62.6742, 78.5625)">
<text font-family="Fira Sans Extra Condensed" font-style="italic" font-size="2.3994" text-anchor="start" fill="currentColor">
<tspan>på</tspan>
</text>
</g>
<g transform="translate(65.6583, 78.5625)">
<text font-family="Fira Sans Extra Condensed" font-style="italic" font-size="2.3994" text-anchor="start" fill="currentColor">
<tspan>hans</tspan>
</text>
</g>
<g transform="translate(70.6508, 78.5625)">
<text font-family="Fira Sans Extra Condensed" font-style="italic" font-size="2.3994" text-anchor="start" fill="currentColor">
<tspan>kors</tspan>
</text>
</g>
<g transform="translate(75.2015, 78.5625)">
<text font-family="Fira Sans Extra Condensed" font-style="italic" font-size="2.3994" text-anchor="start" fill="currentColor">
<tspan>—</tspan>
</text>
</g>
<g transform="translate(22.6421, 81.8341)">
<text font-family="Fira Sans Extra Condensed" font-style="italic" font-size="2.3994" text-anchor="start" fill="currentColor">
<tspan>frid</tspan>
</text>
</g>
<g transform="translate(26.4296, 81.8341)">
<text font-family="Fira Sans Extra Condensed" font-style="italic" font-size="2.3994" text-anchor="start" fill="currentColor">
<tspan>genom</tspan>
</text>
</g>
<g transform="translate(33.2699, 81.8341)">
<text font-family="Fira Sans Extra Condensed" font-style="italic" font-size="2.3994" text-anchor="start" fill="currentColor">
<tspan>honom</tspan>
</text>
</g>
<g transform="translate(40.1905, 81.8341)">
<text font-family="Fira Sans Extra Condensed" font-style="italic" font-size="2.3994" text-anchor="start" fill="currentColor">
<tspan>både</tspan>
</text>
</g>
<g transform="translate(45.3838, 81.8341)">
<text font-family="Fira Sans Extra Condensed" font-style="italic" font-size="2.3994" text-anchor="start" fill="currentColor">
<tspan>på</tspan>
</text>
</g>
<g transform="translate(48.3679, 81.8341)">
<text font-family="Fira Sans Extra Condensed" font-style="italic" font-size="2.3994" text-anchor="start" fill="currentColor">
<tspan>jorden</tspan>
</text>
</g>
<g transform="translate(54.7663, 81.8341)">
<text font-family="Fira Sans Extra Condensed" font-style="italic" font-size="2.3994" text-anchor="start" fill="currentColor">
<tspan>och</tspan>
</text>
</g>
<g transform="translate(58.6341, 81.8341)">
<text font-family="Fira Sans Extra Condensed" font-style="italic" font-size="2.3994" text-anchor="start" fill="currentColor">
<tspan>i</tspan>
</text>
</g>
<g transform="translate(59.8508, 81.8341)">
<text font-family="Fira Sans Extra Condensed" font-style="italic" font-size="2.3994" text-anchor="start" fill="currentColor">
<tspan>himlen.</tspan>
</text>
</g>
<g transform="translate(49.5166, 85.6471)">
<text font-family="Fira Sans Extra Condensed" font-size="2.3994" text-anchor="start" fill="currentColor">
<tspan>Kolosserbrevet 1:18</tspan>
</text>
</g>
<g transform="translate(78.8543, 133.5497)">
<text font-family="Fira Sans Extra Condensed" font-weight="bold" font-size="2.7723" text-anchor="start" fill="currentColor">
<tspan>71</tspan>
</text>
</g>
</svg>
