<svg xmlns="http://www.w3.org/2000/svg" xmlns:xlink="http://www.w3.org/1999/xlink" version="1.2" width="133.00mm" height="210.00mm" viewBox="0.0000 -0.0000 89.0404 140.5901">
<style type="text/css">
<![CDATA[
tspan { white-space: pre; }
]]>
</style>
<g transform="translate(20.0676, 13.4718)">
<line stroke-linejoin="round" stroke-linecap="round" stroke-width="0.1116" stroke="currentColor" x1="0.0558" y1="0" x2="58.8749" y2="0"/>
</g>
<g transform="translate(20.0676, 12.4718)">
<line stroke-linejoin="round" stroke-linecap="round" stroke-width="0.1116" stroke="currentColor" x1="0.0558" y1="0" x2="58.8749" y2="0"/>
</g>
<g transform="translate(20.0676, 11.4718)">
<line stroke-linejoin="round" stroke-linecap="round" stroke-width="0.1116" stroke="currentColor" x1="0.0558" y1="0" x2="58.8749" y2="0"/>
</g>
<g transform="translate(20.0676, 10.4718)">
<line stroke-linejoin="round" stroke-linecap="round" stroke-width="0.1116" stroke="currentColor" x1="0.0558" y1="0" x2="58.8749" y2="0"/>
</g>
<g transform="translate(20.0676, 9.4718)">
<line stroke-linejoin="round" stroke-linecap="round" stroke-width="0.1116" stroke="currentColor" x1="0.0558" y1="0" x2="58.8749" y2="0"/>
</g>
<g transform="translate(35.6384, 11.4718)">
<rect x="0.0000" y="-2.0000" width="0.2120" height="4.0000" ry="0.0000" fill="currentColor"/>
</g>
<g transform="translate(58.4263, 11.4718)">
<rect x="0.0000" y="-2.0000" width="0.2120" height="4.0000" ry="0.0000" fill="currentColor"/>
</g>
<g transform="translate(58.4263, 33.2708)">
<rect x="0.0000" y="-2.0000" width="0.2120" height="4.0000" ry="0.0000" fill="currentColor"/>
</g>
<g transform="translate(35.6384, 33.2708)">
<rect x="0.0000" y="-2.0000" width="0.2120" height="4.0000" ry="0.0000" fill="currentColor"/>
</g>
<g transform="translate(78.7862, 33.2708)">
<rect x="0.0000" y="-2.0000" width="0.2120" height="4.0000" ry="0.0000" fill="currentColor"/>
</g>
<g transform="translate(78.7862, 11.4718)">
<rect x="0.0000" y="-2.0000" width="0.2120" height="4.0000" ry="0.0000" fill="currentColor"/>
</g>
<g transform="translate(8.0170, 30.2708)">
<rect x="34.4224" y="-0.1058" width="1.9542" height="0.2116" ry="0.1058" fill="currentColor"/>
</g>
<g transform="translate(8.0170, 30.2708)">
<rect x="28.9085" y="-0.1058" width="1.9542" height="0.2116" ry="0.1058" fill="currentColor"/>
</g>
<g transform="translate(8.0170, 30.2708)">
<rect x="21.7965" y="-0.1058" width="1.9542" height="0.2116" ry="0.1058" fill="currentColor"/>
</g>
<g transform="translate(20.0676, 35.2708)">
<line stroke-linejoin="round" stroke-linecap="round" stroke-width="0.1116" stroke="currentColor" x1="0.0558" y1="0" x2="58.8749" y2="0"/>
</g>
<g transform="translate(20.0676, 34.2708)">
<line stroke-linejoin="round" stroke-linecap="round" stroke-width="0.1116" stroke="currentColor" x1="0.0558" y1="0" x2="58.8749" y2="0"/>
</g>
<g transform="translate(20.0676, 33.2708)">
<line stroke-linejoin="round" stroke-linecap="round" stroke-width="0.1116" stroke="currentColor" x1="0.0558" y1="0" x2="58.8749" y2="0"/>
</g>
<g transform="translate(20.0676, 32.2708)">
<line stroke-linejoin="round" stroke-linecap="round" stroke-width="0.1116" stroke="currentColor" x1="0.0558" y1="0" x2="58.8749" y2="0"/>
</g>
<g transform="translate(20.0676, 31.2708)">
<line stroke-linejoin="round" stroke-linecap="round" stroke-width="0.1116" stroke="currentColor" x1="0.0558" y1="0" x2="58.8749" y2="0"/>
</g>
<g transform="translate(61.2858, 33.2708)">
<rect x="-0.0725" y="-4.6667" width="0.1451" height="2.4137" ry="0.0471" fill="currentColor"/>
</g>
<g transform="translate(60.0503, 33.2708)">
<rect x="-0.0725" y="0.2530" width="0.1451" height="3.0804" ry="0.0471" fill="currentColor"/>
</g>
<g transform="translate(68.9052, 33.2708)">
<rect x="-0.0725" y="-4.6667" width="0.1451" height="2.4873" ry="0.0471" fill="currentColor"/>
</g>
<g transform="translate(67.7474, 11.4718)">
<rect x="-0.0725" y="2.6794" width="0.1451" height="2.3206" ry="0.0471" fill="currentColor"/>
</g>
<g transform="translate(67.6749, 12.9718)">
<path transform="scale(0.0040, -0.0040)" d="M215 137c67 0 111 -37 111 -92c0 -90 -111 -182 -215 -182c-67 0 -111 37 -111 92c0 90 111 182 215 182z" fill="currentColor"/>
</g>
<g transform="translate(68.9052, 11.4718)">
<rect x="-0.0725" y="-2.0000" width="0.1451" height="3.3206" ry="0.0471" fill="currentColor"/>
</g>
<g transform="translate(67.6749, 33.2708)">
<path transform="scale(0.0040, -0.0040)" d="M215 137c67 0 111 -37 111 -92c0 -90 -111 -182 -215 -182c-67 0 -111 37 -111 92c0 90 111 182 215 182z" fill="currentColor"/>
</g>
<g transform="translate(67.6749, 31.2708)">
<path transform="scale(0.0040, -0.0040)" d="M215 137c67 0 111 -37 111 -92c0 -90 -111 -182 -215 -182c-67 0 -111 37 -111 92c0 90 111 182 215 182z" fill="currentColor"/>
</g>
<g transform="translate(65.7957, 27.2382)">
<text font-family="Georgia Pro Cond" font-size="2.4690" text-anchor="start" fill="currentColor">
<tspan>gum,</tspan>
</text>
</g>
<g transform="translate(67.1413, 24.4382)">
<text font-family="Georgia Pro Cond" font-size="2.4690" text-anchor="start" fill="currentColor">
<tspan>de</tspan>
</text>
</g>
<g transform="translate(66.3982, 21.6382)">
<text font-family="Georgia Pro Cond" font-size="2.4690" text-anchor="start" fill="currentColor">
<tspan>ger,</tspan>
</text>
</g>
<g transform="translate(66.4384, 18.8382)">
<text font-family="Georgia Pro Cond" font-size="2.4690" text-anchor="start" fill="currentColor">
<tspan>lan,</tspan>
</text>
</g>
<g transform="translate(67.6749, 13.9718)">
<path transform="scale(0.0040, -0.0040)" d="M215 137c67 0 111 -37 111 -92c0 -90 -111 -182 -215 -182c-67 0 -111 37 -111 92c0 90 111 182 215 182z" fill="currentColor"/>
</g>
<g transform="translate(56.1922, 33.2708)">
<rect x="-0.0725" y="-5.5000" width="0.1451" height="2.8206" ry="0.0471" fill="currentColor"/>
</g>
<g transform="translate(55.1070, 36.9737)">
<path transform="scale(0.0040, -0.0040)" d="M0 0h-18v250h18v-250zM0 0v250c96 59 222 149 222 259c0 57 -15 111 -40 162c-3 17 10 29 24 29c8 0 16 -5 21 -13c25 -56 40 -116 40 -178c0 -203 -267 -306 -267 -509z" fill="currentColor"/>
</g>
<g transform="translate(55.0345, 33.2708)">
<rect x="-0.0725" y="0.6794" width="0.1451" height="3.0706" ry="0.0471" fill="currentColor"/>
</g>
<g transform="translate(56.2648, 27.8178)">
<path transform="scale(0.0040, -0.0040)" d="M0 0c0 -197 207 -335 207 -532c0 -71 -15 -141 -41 -207c-5 -8 -13 -12 -21 -12c-14 0 -27 11 -24 28c26 60 42 125 42 191c0 103 -93 207 -163 282h-18v250h18z" fill="currentColor"/>
</g>
<g transform="translate(59.9777, 12.9718)">
<path transform="scale(0.0040, -0.0040)" d="M312 64c0 23 -18 41 -41 41c-39 0 -201 -110 -228 -142c-7 -8 -10 -17 -10 -27c0 -23 18 -41 41 -41c39 0 201 110 228 142c7 8 10 17 10 27zM259 137c46 0 86 -17 86 -74c0 -26 -15 -112 -73 -151c-29 -20 -89 -49 -186 -49c-46 0 -86 17 -86 74c0 26 16 112 74 151
c29 20 88 49 185 49z" fill="currentColor"/>
</g>
<g transform="translate(55.1070, 16.4247)">
<path transform="scale(0.0040, -0.0040)" d="M0 0h-18v250h18v-250zM0 0v250c96 59 222 149 222 259c0 57 -15 111 -40 162c-3 17 10 29 24 29c8 0 16 -5 21 -13c25 -56 40 -116 40 -178c0 -203 -267 -306 -267 -509z" fill="currentColor"/>
</g>
<g transform="translate(55.0345, 11.4718)">
<rect x="-0.0725" y="2.1794" width="0.1451" height="2.8206" ry="0.0471" fill="currentColor"/>
</g>
<g transform="translate(56.2648, 9.0188)">
<path transform="scale(0.0040, -0.0040)" d="M0 0c0 -197 207 -335 207 -532c0 -71 -15 -141 -41 -207c-5 -8 -13 -12 -21 -12c-14 0 -27 11 -24 28c26 60 42 125 42 191c0 103 -93 207 -163 282h-18v250h18z" fill="currentColor"/>
</g>
<g transform="translate(60.0503, 11.4718)">
<rect x="-0.0725" y="2.7530" width="0.1451" height="2.2470" ry="0.0471" fill="currentColor"/>
</g>
<g transform="translate(61.2858, 11.4718)">
<rect x="-0.0725" y="-2.0000" width="0.1451" height="3.2470" ry="0.0471" fill="currentColor"/>
</g>
<g transform="translate(59.9777, 33.2708)">
<path transform="scale(0.0040, -0.0040)" d="M312 64c0 23 -18 41 -41 41c-39 0 -201 -110 -228 -142c-7 -8 -10 -17 -10 -27c0 -23 18 -41 41 -41c39 0 201 110 228 142c7 8 10 17 10 27zM259 137c46 0 86 -17 86 -74c0 -26 -15 -112 -73 -151c-29 -20 -89 -49 -186 -49c-46 0 -86 17 -86 74c0 26 16 112 74 151
c29 20 88 49 185 49z" fill="currentColor"/>
</g>
<g transform="translate(59.9777, 31.2708)">
<path transform="scale(0.0040, -0.0040)" d="M312 64c0 23 -18 41 -41 41c-39 0 -201 -110 -228 -142c-7 -8 -10 -17 -10 -27c0 -23 18 -41 41 -41c39 0 201 110 228 142c7 8 10 17 10 27zM259 137c46 0 86 -17 86 -74c0 -26 -15 -112 -73 -151c-29 -20 -89 -49 -186 -49c-46 0 -86 17 -86 74c0 26 16 112 74 151
c29 20 88 49 185 49z" fill="currentColor"/>
</g>
<g transform="translate(58.2780, 27.2382)">
<text font-family="Georgia Pro Cond" font-size="2.4690" text-anchor="start" fill="currentColor">
<tspan>brud</tspan>
</text>
</g>
<g transform="translate(58.7801, 24.4382)">
<text font-family="Georgia Pro Cond" font-size="2.4690" text-anchor="start" fill="currentColor">
<tspan>styr</tspan>
</text>
</g>
<g transform="translate(60.1057, 21.6382)">
<text font-family="Georgia Pro Cond" font-size="2.4690" text-anchor="start" fill="currentColor">
<tspan>ä</tspan>
</text>
</g>
<g transform="translate(59.1818, 18.8382)">
<text font-family="Georgia Pro Cond" font-size="2.4690" text-anchor="start" fill="currentColor">
<tspan>käl</tspan>
</text>
</g>
<g transform="translate(59.9777, 13.9718)">
<path transform="scale(0.0040, -0.0040)" d="M312 64c0 23 -18 41 -41 41c-39 0 -201 -110 -228 -142c-7 -8 -10 -17 -10 -27c0 -23 18 -41 41 -41c39 0 201 110 228 142c7 8 10 17 10 27zM259 137c46 0 86 -17 86 -74c0 -26 -15 -112 -73 -151c-29 -20 -89 -49 -186 -49c-46 0 -86 17 -86 74c0 26 16 112 74 151
c29 20 88 49 185 49z" fill="currentColor"/>
</g>
<g transform="translate(40.4299, 21.6382)">
<rect x="0.0000" y="-0.5651" width="0.6600" height="0.1451" ry="0.0446" fill="currentColor"/>
</g>
<g transform="translate(40.4500, 18.8382)">
<rect x="0.0000" y="-0.5651" width="0.6600" height="0.1451" ry="0.0446" fill="currentColor"/>
</g>
<g transform="translate(39.8676, 24.4382)">
<rect x="0.0000" y="-0.5651" width="0.6600" height="0.1451" ry="0.0446" fill="currentColor"/>
</g>
<g transform="translate(64.0969, 27.2382)">
<rect x="0.0000" y="-0.5651" width="0.6600" height="0.1451" ry="0.0446" fill="currentColor"/>
</g>
<g transform="translate(64.5186, 24.4382)">
<rect x="0.0000" y="-0.5651" width="0.6600" height="0.1451" ry="0.0446" fill="currentColor"/>
</g>
<g transform="translate(63.4843, 21.6382)">
<rect x="0.0000" y="-0.5651" width="0.6600" height="0.1451" ry="0.0446" fill="currentColor"/>
</g>
<g transform="translate(63.9663, 18.8382)">
<rect x="0.0000" y="-0.5651" width="0.6600" height="0.1451" ry="0.0446" fill="currentColor"/>
</g>
<g transform="translate(46.0933, 24.4382)">
<rect x="0.0000" y="-0.5651" width="0.6600" height="0.1451" ry="0.0446" fill="currentColor"/>
</g>
<g transform="translate(45.8021, 21.6382)">
<rect x="0.0000" y="-0.5651" width="0.6600" height="0.1451" ry="0.0446" fill="currentColor"/>
</g>
<g transform="translate(40.2793, 27.2382)">
<rect x="0.0000" y="-0.5651" width="0.6600" height="0.1451" ry="0.0446" fill="currentColor"/>
</g>
<g transform="translate(72.1353, 21.6382)">
<text font-family="Georgia Pro Cond" font-size="2.4690" text-anchor="start" fill="currentColor">
<tspan>och</tspan>
</text>
</g>
<g transform="translate(74.4815, 11.4718)">
<rect x="-0.0725" y="-2.0000" width="0.1451" height="3.3206" ry="0.0471" fill="currentColor"/>
</g>
<g transform="translate(73.2513, 33.2708)">
<path transform="scale(0.0040, -0.0040)" d="M215 137c67 0 111 -37 111 -92c0 -90 -111 -182 -215 -182c-67 0 -111 37 -111 92c0 90 111 182 215 182z" fill="currentColor"/>
</g>
<g transform="translate(73.2513, 31.2708)">
<path transform="scale(0.0040, -0.0040)" d="M215 137c67 0 111 -37 111 -92c0 -90 -111 -182 -215 -182c-67 0 -111 37 -111 92c0 90 111 182 215 182z" fill="currentColor"/>
</g>
<g transform="translate(73.0190, 27.2382)">
<text font-family="Georgia Pro Cond" font-size="2.4690" text-anchor="start" fill="currentColor">
<tspan>ej</tspan>
</text>
</g>
<g transform="translate(72.8784, 24.4382)">
<text font-family="Georgia Pro Cond" font-size="2.4690" text-anchor="start" fill="currentColor">
<tspan>ut</tspan>
</text>
</g>
<g transform="translate(73.3238, 11.4718)">
<rect x="-0.0725" y="1.6794" width="0.1451" height="2.6540" ry="0.0471" fill="currentColor"/>
</g>
<g transform="translate(71.2917, 18.8382)">
<text font-family="Georgia Pro Cond" font-size="2.4690" text-anchor="start" fill="currentColor">
<tspan>Guds</tspan>
</text>
</g>
<g transform="translate(73.2513, 12.9718)">
<path transform="scale(0.0040, -0.0040)" d="M215 137c67 0 111 -37 111 -92c0 -90 -111 -182 -215 -182c-67 0 -111 37 -111 92c0 90 111 182 215 182z" fill="currentColor"/>
</g>
<g transform="translate(73.2513, 12.9718)">
<path transform="scale(0.0040, -0.0040)" d="M215 137c67 0 111 -37 111 -92c0 -90 -111 -182 -215 -182c-67 0 -111 37 -111 92c0 90 111 182 215 182z" fill="currentColor"/>
</g>
<g transform="translate(73.3238, 33.2708)">
<rect x="-0.0725" y="0.1794" width="0.1451" height="3.1540" ry="0.0471" fill="currentColor"/>
</g>
<g transform="translate(67.7474, 33.2708)">
<rect x="-0.0725" y="0.1794" width="0.1451" height="3.1540" ry="0.0471" fill="currentColor"/>
</g>
<g transform="translate(74.4815, 33.2708)">
<rect x="-0.0725" y="-4.6667" width="0.1451" height="2.4873" ry="0.0471" fill="currentColor"/>
</g>
<g transform="translate(37.2512, 12.9718)">
<path transform="scale(0.0040, -0.0040)" d="M215 137c67 0 111 -37 111 -92c0 -90 -111 -182 -215 -182c-67 0 -111 37 -111 92c0 90 111 182 215 182z" fill="currentColor"/>
</g>
<g transform="translate(37.2512, 11.9718)">
<path transform="scale(0.0040, -0.0040)" d="M215 137c67 0 111 -37 111 -92c0 -90 -111 -182 -215 -182c-67 0 -111 37 -111 92c0 90 111 182 215 182z" fill="currentColor"/>
</g>
<g transform="translate(35.8138, 18.8382)">
<text font-family="Georgia Pro Cond" font-size="2.4690" text-anchor="start" fill="currentColor">
<tspan>Kris</tspan>
</text>
</g>
<g transform="translate(30.2117, 33.2708)">
<rect x="-0.0725" y="-0.8206" width="0.1451" height="3.3206" ry="0.0471" fill="currentColor"/>
</g>
<g transform="translate(31.3694, 33.2708)">
<rect x="-0.0725" y="-5.5000" width="0.1451" height="2.3206" ry="0.0471" fill="currentColor"/>
</g>
<g transform="translate(38.4814, 33.2708)">
<rect x="-0.0725" y="-5.5000" width="0.1451" height="2.3206" ry="0.0471" fill="currentColor"/>
</g>
<g transform="translate(56.1922, 11.4718)">
<rect x="-0.0725" y="-2.5000" width="0.1451" height="3.3206" ry="0.0471" fill="currentColor"/>
</g>
<g transform="translate(37.3237, 11.4718)">
<rect x="-0.0725" y="1.6794" width="0.1451" height="2.6540" ry="0.0471" fill="currentColor"/>
</g>
<g transform="translate(38.4814, 11.4718)">
<rect x="-0.0725" y="-3.0000" width="0.1451" height="3.3206" ry="0.0471" fill="currentColor"/>
</g>
<g transform="translate(37.2512, 32.2708)">
<path transform="scale(0.0040, -0.0040)" d="M215 137c67 0 111 -37 111 -92c0 -90 -111 -182 -215 -182c-67 0 -111 37 -111 92c0 90 111 182 215 182z" fill="currentColor"/>
</g>
<g transform="translate(37.2512, 30.2708)">
<path transform="scale(0.0040, -0.0040)" d="M215 137c67 0 111 -37 111 -92c0 -90 -111 -182 -215 -182c-67 0 -111 37 -111 92c0 90 111 182 215 182z" fill="currentColor"/>
</g>
<g transform="translate(36.1552, 27.2382)">
<text font-family="Georgia Pro Cond" font-size="2.4690" text-anchor="start" fill="currentColor">
<tspan>bru</tspan>
</text>
</g>
<g transform="translate(36.4766, 24.4382)">
<text font-family="Georgia Pro Cond" font-size="2.4690" text-anchor="start" fill="currentColor">
<tspan>lev</tspan>
</text>
</g>
<g transform="translate(36.5369, 21.6382)">
<text font-family="Georgia Pro Cond" font-size="2.4690" text-anchor="start" fill="currentColor">
<tspan>äls</tspan>
</text>
</g>
<g transform="translate(26.4472, 11.4718)">
<path transform="scale(0.0040, -0.0040)" d="M358 29c-30 0 -74 23 -74 73c0 38 27 76 71 76c4 0 7 0 11 -1c-27 36 -69 59 -116 59c-106 0 -113 -74 -113 -188c0 -15 1 -31 1 -48s-1 -33 -1 -48c0 -114 7 -188 113 -188c79 0 136 70 155 150c2 7 7 10 13 10c7 0 14 -5 14 -13c0 -21 -50 -175 -182 -175
c-59 0 -250 20 -250 264c0 63 18 264 250 264c115 0 174 -109 174 -165c0 -39 -30 -70 -66 -70z" fill="currentColor"/>
</g>
<g transform="translate(24.4972, 11.4718)">
<path transform="scale(0.0040, -0.0040)" d="M29 39l-2 -64v-11c0 -22 2 -43 5 -65c44 38 91 80 91 138c0 33 -13 66 -42 66c-31 0 -51 -31 -52 -64zM-28 454c9 5 18 8 28 8s19 -3 28 -8l-7 -343c25 23 58 36 92 36c51 0 87 -49 87 -103c0 -79 -84 -117 -144 -169c-16 -14 -25 -41 -47 -41c-14 0 -25 13 -25 27z" fill="currentColor"/>
</g>
<g transform="translate(20.8676, 12.4718)">
<path transform="scale(0.0040, -0.0040)" d="M646 2c0 -113 -74 -213 -180 -247c3 -34 5 -68 5 -102c0 -20 -1 -40 -2 -60c-7 -121 -91 -228 -209 -228c-108 0 -196 87 -196 196c0 58 53 104 112 104c54 0 95 -48 95 -104c0 -52 -43 -95 -95 -95c-10 0 -20 2 -29 6c26 -38 68 -63 116 -63h3c93 2 153 92 159 190
c1 19 2 37 2 56c0 30 -2 60 -4 90c-5 -1 -43 -8 -88 -8c-194 0 -333 180 -333 375c0 177 130 307 246 442c-31 98 -53 170 -53 347c0 115 55 223 148 290c7 5 16 4 22 -1c68 -80 134 -243 134 -357c0 -143 -85 -255 -178 -364c21 -68 40 -137 57 -206c1 0 5 1 11 1
c156 0 257 -129 257 -262zM462 -202c66 24 111 88 111 162c0 89 -65 178 -170 190c28 -135 50 -272 59 -352zM75 26c0 -145 141 -245 263 -245c1 0 46 0 81 6c-7 65 -27 206 -61 363c-79 -8 -124 -61 -124 -119c0 -43 25 -89 80 -121c5 -5 7 -11 7 -16
c0 -12 -10 -23 -22 -23c-16 0 -127 63 -127 188c0 89 58 175 161 198c-14 58 -29 116 -46 173c-106 -122 -212 -244 -212 -404zM406 1042c-99 -47 -162 -148 -162 -257c0 -49 13 -111 38 -191c79 97 144 199 144 324c0 33 0 63 -20 124z" fill="currentColor"/>
</g>
<g transform="translate(30.1392, 12.9718)">
<path transform="scale(0.0040, -0.0040)" d="M215 137c67 0 111 -37 111 -92c0 -90 -111 -182 -215 -182c-67 0 -111 37 -111 92c0 90 111 182 215 182z" fill="currentColor"/>
</g>
<g transform="translate(30.1392, 11.9718)">
<path transform="scale(0.0040, -0.0040)" d="M215 137c67 0 111 -37 111 -92c0 -90 -111 -182 -215 -182c-67 0 -111 37 -111 92c0 90 111 182 215 182z" fill="currentColor"/>
</g>
<g transform="translate(76.5266, 24.4382)">
<rect x="0.0000" y="-0.5651" width="0.6600" height="0.1451" ry="0.0446" fill="currentColor"/>
</g>
<g transform="translate(29.9270, 18.8382)">
<text font-family="Georgia Pro Cond" font-size="2.4690" text-anchor="start" fill="currentColor">
<tspan>O</tspan>
</text>
</g>
<g transform="translate(19.9890, 22.3713)">
<rect x="0.0000" y="-12.9553" width="0.1786" height="25.9106" ry="0.0558" fill="currentColor"/>
</g>
<g transform="translate(18.7390, 9.1910)">
<path transform="scale(0.0040, -0.0040)" d="M0 -56v85c0 15 12 27 27 27h54c157 0 265 136 353 268c12 18 40 0 28 -18c-96 -144 -210 -362 -381 -362h-81z" fill="currentColor"/>
</g>
<g transform="translate(18.7390, 35.5515)">
<path transform="scale(0.0040, -0.0040)" d="M0 56h81c171 0 285 -218 381 -362c12 -18 -16 -36 -28 -18c-88 132 -196 268 -353 268h-54c-15 0 -27 12 -27 27v85z" fill="currentColor"/>
</g>
<g transform="translate(18.7390, 22.3713)">
<rect x="0.0000" y="-13.0003" width="0.4500" height="26.0006" ry="0.0000" fill="currentColor"/>
</g>
<g transform="translate(7.5332, 22.6361)">
<text font-family="Georgia Pro Cond" font-weight="bold" font-size="5.5439" text-anchor="start" fill="currentColor">
<tspan>121</tspan>
</text>
</g>
<g transform="translate(9.6421, 25.6361)">
<text font-family="Georgia Pro Cond" font-size="2.4690" text-anchor="start" fill="currentColor">
<tspan>(134)</tspan>
</text>
</g>
<g transform="translate(20.8676, 32.2708)">
<path transform="scale(0.0040, -0.0040)" d="M558 -125c0 28 22 51 50 51s51 -23 51 -51s-23 -51 -51 -51s-50 23 -50 51zM558 125c0 28 22 51 50 51s51 -23 51 -51s-23 -51 -51 -51s-50 23 -50 51zM231 264c172 0 294 -88 294 -251c0 -263 -262 -416 -515 -523c-3 -3 -7 -4 -10 -4c-7 0 -14 7 -14 14c0 3 1 7 4 10
c201 118 410 265 410 492c0 119 -61 234 -169 234c-72 0 -124 -53 -148 -123c10 4 19 6 29 6c55 0 100 -45 100 -100c0 -58 -44 -106 -100 -106c-60 0 -112 47 -112 106c0 133 101 245 231 245z" fill="currentColor"/>
</g>
<g transform="translate(30.2117, 11.4718)">
<rect x="-0.0725" y="1.6794" width="0.1451" height="2.6540" ry="0.0471" fill="currentColor"/>
</g>
<g transform="translate(31.3694, 11.4718)">
<rect x="-0.0725" y="-3.0000" width="0.1451" height="3.3206" ry="0.0471" fill="currentColor"/>
</g>
<g transform="translate(26.4472, 33.2708)">
<path transform="scale(0.0040, -0.0040)" d="M358 29c-30 0 -74 23 -74 73c0 38 27 76 71 76c4 0 7 0 11 -1c-27 36 -69 59 -116 59c-106 0 -113 -74 -113 -188c0 -15 1 -31 1 -48s-1 -33 -1 -48c0 -114 7 -188 113 -188c79 0 136 70 155 150c2 7 7 10 13 10c7 0 14 -5 14 -13c0 -21 -50 -175 -182 -175
c-59 0 -250 20 -250 264c0 63 18 264 250 264c115 0 174 -109 174 -165c0 -39 -30 -70 -66 -70z" fill="currentColor"/>
</g>
<g transform="translate(24.4972, 34.2708)">
<path transform="scale(0.0040, -0.0040)" d="M29 39l-2 -64v-11c0 -22 2 -43 5 -65c44 38 91 80 91 138c0 33 -13 66 -42 66c-31 0 -51 -31 -52 -64zM-28 454c9 5 18 8 28 8s19 -3 28 -8l-7 -343c25 23 58 36 92 36c51 0 87 -49 87 -103c0 -79 -84 -117 -144 -169c-16 -14 -25 -41 -47 -41c-14 0 -25 13 -25 27z" fill="currentColor"/>
</g>
<g transform="translate(30.1392, 32.2708)">
<path transform="scale(0.0040, -0.0040)" d="M215 137c67 0 111 -37 111 -92c0 -90 -111 -182 -215 -182c-67 0 -111 37 -111 92c0 90 111 182 215 182z" fill="currentColor"/>
</g>
<g transform="translate(30.1392, 30.2708)">
<path transform="scale(0.0040, -0.0040)" d="M215 137c67 0 111 -37 111 -92c0 -90 -111 -182 -215 -182c-67 0 -111 37 -111 92c0 90 111 182 215 182z" fill="currentColor"/>
</g>
<g transform="translate(25.2515, 27.2382)">
<text font-family="Georgia Pro Cond" font-weight="bold" font-size="2.1999" text-anchor="start" fill="currentColor">
<tspan>4.</tspan>
</text>
</g>
<g transform="translate(28.5612, 27.2382)">
<text font-family="Georgia Pro Cond" font-size="2.4690" text-anchor="start" fill="currentColor">
<tspan>Som</tspan>
</text>
</g>
<g transform="translate(25.2515, 24.4382)">
<text font-family="Georgia Pro Cond" font-weight="bold" font-size="2.1999" text-anchor="start" fill="currentColor">
<tspan>3.</tspan>
</text>
</g>
<g transform="translate(29.0633, 24.4382)">
<text font-family="Georgia Pro Cond" font-size="2.4690" text-anchor="start" fill="currentColor">
<tspan>Vår</tspan>
</text>
</g>
<g transform="translate(25.2515, 21.6382)">
<text font-family="Georgia Pro Cond" font-weight="bold" font-size="2.1999" text-anchor="start" fill="currentColor">
<tspan>2.</tspan>
</text>
</g>
<g transform="translate(28.2198, 21.6382)">
<text font-family="Georgia Pro Cond" font-size="2.4690" text-anchor="start" fill="currentColor">
<tspan>”Min</tspan>
</text>
</g>
<g transform="translate(25.2515, 18.8382)">
<text font-family="Georgia Pro Cond" font-weight="bold" font-size="2.1999" text-anchor="start" fill="currentColor">
<tspan>1.</tspan>
</text>
</g>
<g transform="translate(49.9652, 11.9718)">
<path transform="scale(0.0040, -0.0040)" d="M0 0c0 31 25 56 56 56s55 -25 55 -56s-24 -56 -55 -56s-56 25 -56 56z" fill="currentColor"/>
</g>
<g transform="translate(48.2890, 11.4718)">
<rect x="-0.0725" y="2.1794" width="0.1451" height="2.4873" ry="0.0471" fill="currentColor"/>
</g>
<g transform="translate(49.9652, 13.9718)">
<path transform="scale(0.0040, -0.0040)" d="M0 0c0 31 25 56 56 56s55 -25 55 -56s-24 -56 -55 -56s-56 25 -56 56z" fill="currentColor"/>
</g>
<g transform="translate(49.4467, 11.4718)">
<rect x="-0.0725" y="-2.5000" width="0.1451" height="3.3206" ry="0.0471" fill="currentColor"/>
</g>
<g transform="translate(48.2164, 33.7708)">
<path transform="scale(0.0040, -0.0040)" d="M215 137c67 0 111 -37 111 -92c0 -90 -111 -182 -215 -182c-67 0 -111 37 -111 92c0 90 111 182 215 182z" fill="currentColor"/>
</g>
<g transform="translate(48.2164, 30.7708)">
<path transform="scale(0.0040, -0.0040)" d="M215 137c67 0 111 -37 111 -92c0 -90 -111 -182 -215 -182c-67 0 -111 37 -111 92c0 90 111 182 215 182z" fill="currentColor"/>
</g>
<g transform="translate(47.6628, 27.2382)">
<text font-family="Georgia Pro Cond" font-size="2.4690" text-anchor="start" fill="currentColor">
<tspan>på</tspan>
</text>
</g>
<g transform="translate(47.0803, 24.4382)">
<text font-family="Georgia Pro Cond" font-size="2.4690" text-anchor="start" fill="currentColor">
<tspan>stig</tspan>
</text>
</g>
<g transform="translate(47.6829, 21.6382)">
<text font-family="Georgia Pro Cond" font-size="2.4690" text-anchor="start" fill="currentColor">
<tspan>de</tspan>
</text>
</g>
<g transform="translate(47.3615, 18.8382)">
<text font-family="Georgia Pro Cond" font-size="2.4690" text-anchor="start" fill="currentColor">
<tspan>Du</tspan>
</text>
</g>
<g transform="translate(48.2164, 13.4718)">
<path transform="scale(0.0040, -0.0040)" d="M215 137c67 0 111 -37 111 -92c0 -90 -111 -182 -215 -182c-67 0 -111 37 -111 92c0 90 111 182 215 182z" fill="currentColor"/>
</g>
<g transform="translate(54.9620, 33.7708)">
<path transform="scale(0.0040, -0.0040)" d="M215 137c67 0 111 -37 111 -92c0 -90 -111 -182 -215 -182c-67 0 -111 37 -111 92c0 90 111 182 215 182z" fill="currentColor"/>
</g>
<g transform="translate(54.9620, 30.7708)">
<path transform="scale(0.0040, -0.0040)" d="M215 137c67 0 111 -37 111 -92c0 -90 -111 -182 -215 -182c-67 0 -111 37 -111 92c0 90 111 182 215 182z" fill="currentColor"/>
</g>
<g transform="translate(54.1271, 27.2382)">
<text font-family="Georgia Pro Cond" font-size="2.4690" text-anchor="start" fill="currentColor">
<tspan>sin</tspan>
</text>
</g>
<g transform="translate(53.4643, 24.4382)">
<text font-family="Georgia Pro Cond" font-size="2.4690" text-anchor="start" fill="currentColor">
<tspan>Han</tspan>
</text>
</g>
<g transform="translate(53.7254, 21.6382)">
<text font-family="Georgia Pro Cond" font-size="2.4690" text-anchor="start" fill="currentColor">
<tspan>mig</tspan>
</text>
</g>
<g transform="translate(54.5891, 18.8382)">
<text font-family="Georgia Pro Cond" font-size="2.4690" text-anchor="start" fill="currentColor">
<tspan>är</tspan>
</text>
</g>
<g transform="translate(54.9620, 13.4718)">
<path transform="scale(0.0040, -0.0040)" d="M215 137c67 0 111 -37 111 -92c0 -90 -111 -182 -215 -182c-67 0 -111 37 -111 92c0 90 111 182 215 182z" fill="currentColor"/>
</g>
<g transform="translate(54.9620, 12.4718)">
<path transform="scale(0.0040, -0.0040)" d="M215 137c67 0 111 -37 111 -92c0 -90 -111 -182 -215 -182c-67 0 -111 37 -111 92c0 90 111 182 215 182z" fill="currentColor"/>
</g>
<g transform="translate(48.2164, 12.4718)">
<path transform="scale(0.0040, -0.0040)" d="M215 137c67 0 111 -37 111 -92c0 -90 -111 -182 -215 -182c-67 0 -111 37 -111 92c0 90 111 182 215 182z" fill="currentColor"/>
</g>
<g transform="translate(48.2890, 33.2708)">
<rect x="-0.0725" y="0.6794" width="0.1451" height="2.9873" ry="0.0471" fill="currentColor"/>
</g>
<g transform="translate(49.9652, 33.7708)">
<path transform="scale(0.0040, -0.0040)" d="M0 0c0 31 25 56 56 56s55 -25 55 -56s-24 -56 -55 -56s-56 25 -56 56z" fill="currentColor"/>
</g>
<g transform="translate(49.4467, 33.2708)">
<rect x="-0.0725" y="-5.0000" width="0.1451" height="2.3206" ry="0.0471" fill="currentColor"/>
</g>
<g transform="translate(49.9652, 30.7708)">
<path transform="scale(0.0040, -0.0040)" d="M0 0c0 31 25 56 56 56s55 -25 55 -56s-24 -56 -55 -56s-56 25 -56 56z" fill="currentColor"/>
</g>
<g transform="translate(42.7651, 30.2708)">
<path transform="scale(0.0040, -0.0040)" d="M215 137c67 0 111 -37 111 -92c0 -90 -111 -182 -215 -182c-67 0 -111 37 -111 92c0 90 111 182 215 182z" fill="currentColor"/>
</g>
<g transform="translate(41.5687, 27.2382)">
<text font-family="Georgia Pro Cond" font-size="2.4690" text-anchor="start" fill="currentColor">
<tspan>den</tspan>
</text>
</g>
<g transform="translate(41.0666, 24.4382)">
<text font-family="Georgia Pro Cond" font-size="2.4690" text-anchor="start" fill="currentColor">
<tspan>nads</tspan>
</text>
</g>
<g transform="translate(42.2516, 21.6382)">
<text font-family="Georgia Pro Cond" font-size="2.4690" text-anchor="start" fill="currentColor">
<tspan>ka</tspan>
</text>
</g>
<g transform="translate(41.5687, 18.8382)">
<text font-family="Georgia Pro Cond" font-size="2.4690" text-anchor="start" fill="currentColor">
<tspan>tus,</tspan>
</text>
</g>
<g transform="translate(42.7651, 12.9718)">
<path transform="scale(0.0040, -0.0040)" d="M215 137c67 0 111 -37 111 -92c0 -90 -111 -182 -215 -182c-67 0 -111 37 -111 92c0 90 111 182 215 182z" fill="currentColor"/>
</g>
<g transform="translate(42.7651, 11.9718)">
<path transform="scale(0.0040, -0.0040)" d="M215 137c67 0 111 -37 111 -92c0 -90 -111 -182 -215 -182c-67 0 -111 37 -111 92c0 90 111 182 215 182z" fill="currentColor"/>
</g>
<g transform="translate(37.3237, 33.2708)">
<rect x="-0.0725" y="-0.8206" width="0.1451" height="3.3206" ry="0.0471" fill="currentColor"/>
</g>
<g transform="translate(42.8376, 33.2708)">
<rect x="-0.0725" y="-0.8206" width="0.1451" height="3.3206" ry="0.0471" fill="currentColor"/>
</g>
<g transform="translate(43.9953, 33.2708)">
<rect x="-0.0725" y="-5.5000" width="0.1451" height="2.3206" ry="0.0471" fill="currentColor"/>
</g>
<g transform="translate(42.7651, 32.2708)">
<path transform="scale(0.0040, -0.0040)" d="M215 137c67 0 111 -37 111 -92c0 -90 -111 -182 -215 -182c-67 0 -111 37 -111 92c0 90 111 182 215 182z" fill="currentColor"/>
</g>
<g transform="translate(43.9953, 11.4718)">
<rect x="-0.0725" y="-3.0000" width="0.1451" height="3.3206" ry="0.0471" fill="currentColor"/>
</g>
<g transform="translate(42.8376, 11.4718)">
<rect x="-0.0725" y="1.6794" width="0.1451" height="2.6540" ry="0.0471" fill="currentColor"/>
</g>
<g transform="translate(8.0170, 56.7097)">
<line stroke-linejoin="round" stroke-linecap="round" stroke-width="0.1116" stroke="currentColor" x1="0.0558" y1="0" x2="70.9255" y2="0"/>
</g>
<g transform="translate(8.0170, 55.7097)">
<line stroke-linejoin="round" stroke-linecap="round" stroke-width="0.1116" stroke="currentColor" x1="0.0558" y1="0" x2="70.9255" y2="0"/>
</g>
<g transform="translate(8.0170, 54.7097)">
<line stroke-linejoin="round" stroke-linecap="round" stroke-width="0.1116" stroke="currentColor" x1="0.0558" y1="0" x2="70.9255" y2="0"/>
</g>
<g transform="translate(8.0170, 53.7097)">
<line stroke-linejoin="round" stroke-linecap="round" stroke-width="0.1116" stroke="currentColor" x1="0.0558" y1="0" x2="70.9255" y2="0"/>
</g>
<g transform="translate(8.0170, 52.7097)">
<line stroke-linejoin="round" stroke-linecap="round" stroke-width="0.1116" stroke="currentColor" x1="0.0558" y1="0" x2="70.9255" y2="0"/>
</g>
<g transform="translate(37.4327, 54.7097)">
<rect x="0.0000" y="-2.0000" width="0.2120" height="4.0000" ry="0.0000" fill="currentColor"/>
</g>
<g transform="translate(78.7862, 54.7097)">
<rect x="0.0000" y="-2.0000" width="0.2120" height="4.0000" ry="0.0000" fill="currentColor"/>
</g>
<g transform="translate(37.4327, 77.1561)">
<rect x="0.0000" y="-2.0000" width="0.2120" height="4.0000" ry="0.0000" fill="currentColor"/>
</g>
<g transform="translate(78.7862, 77.1561)">
<rect x="0.0000" y="-2.0000" width="0.2120" height="4.0000" ry="0.0000" fill="currentColor"/>
</g>
<g transform="translate(54.5274, 77.1561)">
<rect x="0.0000" y="-2.0000" width="0.2120" height="4.0000" ry="0.0000" fill="currentColor"/>
</g>
<g transform="translate(54.5274, 54.7097)">
<rect x="0.0000" y="-2.0000" width="0.2120" height="4.0000" ry="0.0000" fill="currentColor"/>
</g>
<g transform="translate(8.0170, 79.1561)">
<line stroke-linejoin="round" stroke-linecap="round" stroke-width="0.1116" stroke="currentColor" x1="0.0558" y1="0" x2="70.9255" y2="0"/>
</g>
<g transform="translate(8.0170, 78.1561)">
<line stroke-linejoin="round" stroke-linecap="round" stroke-width="0.1116" stroke="currentColor" x1="0.0558" y1="0" x2="70.9255" y2="0"/>
</g>
<g transform="translate(8.0170, 77.1561)">
<line stroke-linejoin="round" stroke-linecap="round" stroke-width="0.1116" stroke="currentColor" x1="0.0558" y1="0" x2="70.9255" y2="0"/>
</g>
<g transform="translate(8.0170, 76.1561)">
<line stroke-linejoin="round" stroke-linecap="round" stroke-width="0.1116" stroke="currentColor" x1="0.0558" y1="0" x2="70.9255" y2="0"/>
</g>
<g transform="translate(8.0170, 75.1561)">
<line stroke-linejoin="round" stroke-linecap="round" stroke-width="0.1116" stroke="currentColor" x1="0.0558" y1="0" x2="70.9255" y2="0"/>
</g>
<g transform="translate(8.0170, 74.1561)">
<rect x="65.0423" y="-0.1058" width="1.9542" height="0.2116" ry="0.1058" fill="currentColor"/>
</g>
<g transform="translate(8.0170, 74.1561)">
<rect x="59.6143" y="-0.1058" width="1.9542" height="0.2116" ry="0.1058" fill="currentColor"/>
</g>
<g transform="translate(8.0170, 74.1561)">
<rect x="54.4445" y="-0.1058" width="1.9542" height="0.2116" ry="0.1058" fill="currentColor"/>
</g>
<g transform="translate(8.0170, 74.1561)">
<rect x="47.8100" y="-0.1058" width="1.9542" height="0.2116" ry="0.1058" fill="currentColor"/>
</g>
<g transform="translate(8.0170, 74.1561)">
<rect x="40.4342" y="-0.1058" width="1.9542" height="0.2116" ry="0.1058" fill="currentColor"/>
</g>
<g transform="translate(8.0170, 74.1561)">
<rect x="31.5774" y="-0.1058" width="2.0709" height="0.2116" ry="0.1058" fill="currentColor"/>
</g>
<g transform="translate(8.0170, 74.1561)">
<rect x="23.6499" y="-0.1058" width="1.9542" height="0.2116" ry="0.1058" fill="currentColor"/>
</g>
<g transform="translate(8.0170, 74.1561)">
<rect x="18.2844" y="-0.1058" width="1.9542" height="0.2116" ry="0.1058" fill="currentColor"/>
</g>
<g transform="translate(8.0170, 74.1561)">
<rect x="14.0385" y="-0.1058" width="1.9542" height="0.2116" ry="0.1058" fill="currentColor"/>
</g>
<g transform="translate(8.0170, 74.1561)">
<rect x="7.4040" y="-0.1058" width="1.9542" height="0.2116" ry="0.1058" fill="currentColor"/>
</g>
<g transform="translate(64.0900, 71.2032)">
<path transform="scale(0.0040, -0.0040)" d="M0 0c0 -197 207 -335 207 -532c0 -71 -15 -141 -41 -207c-5 -8 -13 -12 -21 -12c-14 0 -27 11 -24 28c26 60 42 125 42 191c0 103 -93 207 -163 282h-18v250h18z" fill="currentColor"/>
</g>
<g transform="translate(56.2252, 77.1561)">
<rect x="-0.0725" y="-1.8206" width="0.1451" height="3.3206" ry="0.0471" fill="currentColor"/>
</g>
<g transform="translate(57.9014, 75.6561)">
<path transform="scale(0.0040, -0.0040)" d="M0 0c0 31 25 56 56 56s55 -25 55 -56s-24 -56 -55 -56s-56 25 -56 56z" fill="currentColor"/>
</g>
<g transform="translate(57.3829, 77.1561)">
<rect x="-0.0725" y="-5.5000" width="0.1451" height="2.3206" ry="0.0471" fill="currentColor"/>
</g>
<g transform="translate(48.7769, 74.1561)">
<path transform="scale(0.0040, -0.0040)" d="M215 137c67 0 111 -37 111 -92c0 -90 -111 -182 -215 -182c-67 0 -111 37 -111 92c0 90 111 182 215 182z" fill="currentColor"/>
</g>
<g transform="translate(57.9014, 73.6561)">
<path transform="scale(0.0040, -0.0040)" d="M0 0c0 31 25 56 56 56s55 -25 55 -56s-24 -56 -55 -56s-56 25 -56 56z" fill="currentColor"/>
</g>
<g transform="translate(64.0175, 54.7097)">
<rect x="-0.0725" y="-3.7500" width="0.1451" height="3.0706" ry="0.0471" fill="currentColor"/>
</g>
<g transform="translate(64.0175, 77.1561)">
<rect x="-0.0725" y="-6.0000" width="0.1451" height="2.8206" ry="0.0471" fill="currentColor"/>
</g>
<g transform="translate(62.9323, 59.1627)">
<path transform="scale(0.0040, -0.0040)" d="M0 0h-18v250h18v-250zM0 0v250c96 59 222 149 222 259c0 57 -15 111 -40 162c-3 17 10 29 24 29c8 0 16 -5 21 -13c25 -56 40 -116 40 -178c0 -203 -267 -306 -267 -509z" fill="currentColor"/>
</g>
<g transform="translate(62.8597, 54.7097)">
<rect x="-0.0725" y="1.6794" width="0.1451" height="2.8206" ry="0.0471" fill="currentColor"/>
</g>
<g transform="translate(64.0900, 51.0068)">
<path transform="scale(0.0040, -0.0040)" d="M0 0c0 -197 207 -335 207 -532c0 -71 -15 -141 -41 -207c-5 -8 -13 -12 -21 -12c-14 0 -27 11 -24 28c26 60 42 125 42 191c0 103 -93 207 -163 282h-18v250h18z" fill="currentColor"/>
</g>
<g transform="translate(62.7872, 75.1561)">
<path transform="scale(0.0040, -0.0040)" d="M215 137c67 0 111 -37 111 -92c0 -90 -111 -182 -215 -182c-67 0 -111 37 -111 92c0 90 111 182 215 182z" fill="currentColor"/>
</g>
<g transform="translate(62.7872, 74.1561)">
<path transform="scale(0.0040, -0.0040)" d="M215 137c67 0 111 -37 111 -92c0 -90 -111 -182 -215 -182c-67 0 -111 37 -111 92c0 90 111 182 215 182z" fill="currentColor"/>
</g>
<g transform="translate(62.2335, 70.1561)">
<text font-family="Georgia Pro Cond" font-size="2.4690" text-anchor="start" fill="currentColor">
<tspan>da</tspan>
</text>
</g>
<g transform="translate(61.6712, 67.3561)">
<text font-family="Georgia Pro Cond" font-size="2.4690" text-anchor="start" fill="currentColor">
<tspan>ven</tspan>
</text>
</g>
<g transform="translate(61.0887, 64.5561)">
<text font-family="Georgia Pro Cond" font-size="2.4690" text-anchor="start" fill="currentColor">
<tspan>hans</tspan>
</text>
</g>
<g transform="translate(61.6310, 61.7561)">
<text font-family="Georgia Pro Cond" font-size="2.4690" text-anchor="start" fill="currentColor">
<tspan>lek,</tspan>
</text>
</g>
<g transform="translate(62.7872, 56.2097)">
<path transform="scale(0.0040, -0.0040)" d="M215 137c67 0 111 -37 111 -92c0 -90 -111 -182 -215 -182c-67 0 -111 37 -111 92c0 90 111 182 215 182z" fill="currentColor"/>
</g>
<g transform="translate(62.7872, 54.2097)">
<path transform="scale(0.0040, -0.0040)" d="M215 137c67 0 111 -37 111 -92c0 -90 -111 -182 -215 -182c-67 0 -111 37 -111 92c0 90 111 182 215 182z" fill="currentColor"/>
</g>
<g transform="translate(50.1522, 77.1561)">
<rect x="-0.0725" y="-2.3206" width="0.1451" height="3.3206" ry="0.0471" fill="currentColor"/>
</g>
<g transform="translate(50.0072, 77.1561)">
<rect x="-0.0725" y="-5.5000" width="0.1451" height="2.3206" ry="0.0471" fill="currentColor"/>
</g>
<g transform="translate(48.8494, 54.7097)">
<rect x="-0.0725" y="2.1794" width="0.1451" height="2.4873" ry="0.0471" fill="currentColor"/>
</g>
<g transform="translate(50.0072, 54.7097)">
<rect x="-0.0725" y="-2.5000" width="0.1451" height="3.3206" ry="0.0471" fill="currentColor"/>
</g>
<g transform="translate(50.0797, 74.6561)">
<path transform="scale(0.0040, -0.0040)" d="M215 137c67 0 111 -37 111 -92c0 -90 -111 -182 -215 -182c-67 0 -111 37 -111 92c0 90 111 182 215 182z" fill="currentColor"/>
</g>
<g transform="translate(56.2417, 67.3561)">
<text font-family="Georgia Pro Cond" font-size="2.4690" text-anchor="start" fill="currentColor">
<tspan>ä</tspan>
</text>
</g>
<g transform="translate(57.9014, 56.2097)">
<path transform="scale(0.0040, -0.0040)" d="M0 0c0 31 25 56 56 56s55 -25 55 -56s-24 -56 -55 -56s-56 25 -56 56z" fill="currentColor"/>
</g>
<g transform="translate(57.3829, 54.7097)">
<rect x="-0.0725" y="-3.6667" width="0.1451" height="2.9873" ry="0.0471" fill="currentColor"/>
</g>
<g transform="translate(57.9014, 54.2097)">
<path transform="scale(0.0040, -0.0040)" d="M0 0c0 31 25 56 56 56s55 -25 55 -56s-24 -56 -55 -56s-56 25 -56 56z" fill="currentColor"/>
</g>
<g transform="translate(56.1527, 75.1561)">
<path transform="scale(0.0040, -0.0040)" d="M215 137c67 0 111 -37 111 -92c0 -90 -111 -182 -215 -182c-67 0 -111 37 -111 92c0 90 111 182 215 182z" fill="currentColor"/>
</g>
<g transform="translate(56.1527, 74.1561)">
<path transform="scale(0.0040, -0.0040)" d="M215 137c67 0 111 -37 111 -92c0 -90 -111 -182 -215 -182c-67 0 -111 37 -111 92c0 90 111 182 215 182z" fill="currentColor"/>
</g>
<g transform="translate(55.1571, 70.1561)">
<text font-family="Georgia Pro Cond" font-size="2.4690" text-anchor="start" fill="currentColor">
<tspan>skå</tspan>
</text>
</g>
<g transform="translate(56.2252, 54.7097)">
<rect x="-0.0725" y="1.6794" width="0.1451" height="2.6540" ry="0.0471" fill="currentColor"/>
</g>
<g transform="translate(55.2776, 64.5561)">
<text font-family="Georgia Pro Cond" font-size="2.4690" text-anchor="start" fill="currentColor">
<tspan>må</tspan>
</text>
</g>
<g transform="translate(55.1772, 61.7561)">
<text font-family="Georgia Pro Cond" font-size="2.4690" text-anchor="start" fill="currentColor">
<tspan>kär</tspan>
</text>
</g>
<g transform="translate(56.1527, 56.2097)">
<path transform="scale(0.0040, -0.0040)" d="M215 137c67 0 111 -37 111 -92c0 -90 -111 -182 -215 -182c-67 0 -111 37 -111 92c0 90 111 182 215 182z" fill="currentColor"/>
</g>
<g transform="translate(56.1527, 54.2097)">
<path transform="scale(0.0040, -0.0040)" d="M215 137c67 0 111 -37 111 -92c0 -90 -111 -182 -215 -182c-67 0 -111 37 -111 92c0 90 111 182 215 182z" fill="currentColor"/>
</g>
<g transform="translate(28.9685, 64.5561)">
<rect x="0.0000" y="-0.5651" width="0.6600" height="0.1451" ry="0.0446" fill="currentColor"/>
</g>
<g transform="translate(19.6866, 61.7561)">
<rect x="0.0000" y="-0.5651" width="0.6600" height="0.1451" ry="0.0446" fill="currentColor"/>
</g>
<g transform="translate(29.4706, 67.3561)">
<rect x="0.0000" y="-0.5651" width="0.6600" height="0.1451" ry="0.0446" fill="currentColor"/>
</g>
<g transform="translate(71.3941, 64.5561)">
<rect x="0.0000" y="-0.5651" width="0.6600" height="0.1451" ry="0.0446" fill="currentColor"/>
</g>
<g transform="translate(60.0123, 70.1561)">
<rect x="0.0000" y="-0.5651" width="0.6600" height="0.1451" ry="0.0446" fill="currentColor"/>
</g>
<g transform="translate(59.1888, 67.3561)">
<rect x="0.0000" y="-0.5651" width="0.6600" height="0.1451" ry="0.0446" fill="currentColor"/>
</g>
<g transform="translate(59.7009, 61.7561)">
<rect x="0.0000" y="-0.5651" width="0.6600" height="0.1451" ry="0.0446" fill="currentColor"/>
</g>
<g transform="translate(73.4575, 77.1561)">
<rect x="-0.0725" y="-1.3206" width="0.1451" height="3.3206" ry="0.0471" fill="currentColor"/>
</g>
<g transform="translate(36.2768, 67.3561)">
<rect x="0.0000" y="-0.5651" width="0.6600" height="0.1451" ry="0.0446" fill="currentColor"/>
</g>
<g transform="translate(29.8522, 70.1561)">
<rect x="0.0000" y="-0.5651" width="0.6600" height="0.1451" ry="0.0446" fill="currentColor"/>
</g>
<g transform="translate(67.9570, 75.6561)">
<path transform="scale(0.0040, -0.0040)" d="M215 137c67 0 111 -37 111 -92c0 -90 -111 -182 -215 -182c-67 0 -111 37 -111 92c0 90 111 182 215 182z" fill="currentColor"/>
</g>
<g transform="translate(69.1873, 77.1561)">
<rect x="-0.0725" y="-5.5000" width="0.1451" height="2.3206" ry="0.0471" fill="currentColor"/>
</g>
<g transform="translate(68.0295, 54.7097)">
<rect x="-0.0725" y="2.1794" width="0.1451" height="2.4873" ry="0.0471" fill="currentColor"/>
</g>
<g transform="translate(69.1873, 54.7097)">
<rect x="-0.0725" y="-3.3333" width="0.1451" height="3.1540" ry="0.0471" fill="currentColor"/>
</g>
<g transform="translate(68.0295, 77.1561)">
<rect x="-0.0725" y="-1.3206" width="0.1451" height="3.3206" ry="0.0471" fill="currentColor"/>
</g>
<g transform="translate(67.9570, 74.1561)">
<path transform="scale(0.0040, -0.0040)" d="M215 137c67 0 111 -37 111 -92c0 -90 -111 -182 -215 -182c-67 0 -111 37 -111 92c0 90 111 182 215 182z" fill="currentColor"/>
</g>
<g transform="translate(67.7046, 70.1561)">
<text font-family="Georgia Pro Cond" font-size="2.4690" text-anchor="start" fill="currentColor">
<tspan>vi</tspan>
</text>
</g>
<g transform="translate(66.5397, 67.3561)">
<text font-family="Georgia Pro Cond" font-size="2.4690" text-anchor="start" fill="currentColor">
<tspan>mitt</tspan>
</text>
</g>
<g transform="translate(66.2385, 64.5561)">
<text font-family="Georgia Pro Cond" font-size="2.4690" text-anchor="start" fill="currentColor">
<tspan>skön</tspan>
</text>
</g>
<g transform="translate(66.7406, 61.7561)">
<text font-family="Georgia Pro Cond" font-size="2.4690" text-anchor="start" fill="currentColor">
<tspan>nåd</tspan>
</text>
</g>
<g transform="translate(67.9570, 56.7097)">
<path transform="scale(0.0040, -0.0040)" d="M215 137c67 0 111 -37 111 -92c0 -90 -111 -182 -215 -182c-67 0 -111 37 -111 92c0 90 111 182 215 182z" fill="currentColor"/>
</g>
<g transform="translate(67.9570, 54.7097)">
<path transform="scale(0.0040, -0.0040)" d="M215 137c67 0 111 -37 111 -92c0 -90 -111 -182 -215 -182c-67 0 -111 37 -111 92c0 90 111 182 215 182z" fill="currentColor"/>
</g>
<g transform="translate(62.9323, 78.6091)">
<path transform="scale(0.0040, -0.0040)" d="M0 0h-18v250h18v-250zM0 0v250c96 59 222 149 222 259c0 57 -15 111 -40 162c-3 17 10 29 24 29c8 0 16 -5 21 -13c25 -56 40 -116 40 -178c0 -203 -267 -306 -267 -509z" fill="currentColor"/>
</g>
<g transform="translate(74.6153, 54.7097)">
<rect x="-0.0725" y="-3.3333" width="0.1451" height="3.1540" ry="0.0471" fill="currentColor"/>
</g>
<g transform="translate(74.6153, 77.1561)">
<rect x="-0.0725" y="-5.5000" width="0.1451" height="2.3206" ry="0.0471" fill="currentColor"/>
</g>
<g transform="translate(73.4575, 54.7097)">
<rect x="-0.0725" y="2.1794" width="0.1451" height="2.4873" ry="0.0471" fill="currentColor"/>
</g>
<g transform="translate(62.8597, 77.1561)">
<rect x="-0.0725" y="-1.8206" width="0.1451" height="3.3206" ry="0.0471" fill="currentColor"/>
</g>
<g transform="translate(73.3850, 75.6561)">
<path transform="scale(0.0040, -0.0040)" d="M215 137c67 0 111 -37 111 -92c0 -90 -111 -182 -215 -182c-67 0 -111 37 -111 92c0 90 111 182 215 182z" fill="currentColor"/>
</g>
<g transform="translate(73.3850, 74.1561)">
<path transform="scale(0.0040, -0.0040)" d="M215 137c67 0 111 -37 111 -92c0 -90 -111 -182 -215 -182c-67 0 -111 37 -111 92c0 90 111 182 215 182z" fill="currentColor"/>
</g>
<g transform="translate(72.8313, 70.1561)">
<text font-family="Georgia Pro Cond" font-size="2.4690" text-anchor="start" fill="currentColor">
<tspan>på</tspan>
</text>
</g>
<g transform="translate(73.6950, 67.3561)">
<text font-family="Georgia Pro Cond" font-size="2.4690" text-anchor="start" fill="currentColor">
<tspan>i</tspan>
</text>
</g>
<g transform="translate(72.4698, 64.5561)">
<text font-family="Georgia Pro Cond" font-size="2.4690" text-anchor="start" fill="currentColor">
<tspan>het</tspan>
</text>
</g>
<g transform="translate(72.2690, 61.7561)">
<text font-family="Georgia Pro Cond" font-size="2.4690" text-anchor="start" fill="currentColor">
<tspan>och</tspan>
</text>
</g>
<g transform="translate(73.3850, 56.7097)">
<path transform="scale(0.0040, -0.0040)" d="M215 137c67 0 111 -37 111 -92c0 -90 -111 -182 -215 -182c-67 0 -111 37 -111 92c0 90 111 182 215 182z" fill="currentColor"/>
</g>
<g transform="translate(73.3850, 54.7097)">
<path transform="scale(0.0040, -0.0040)" d="M215 137c67 0 111 -37 111 -92c0 -90 -111 -182 -215 -182c-67 0 -111 37 -111 92c0 90 111 182 215 182z" fill="currentColor"/>
</g>
<g transform="translate(23.6840, 51.3818)">
<path transform="scale(0.0040, -0.0040)" d="M0 0c0 -197 207 -335 207 -532c0 -71 -15 -141 -41 -207c-5 -8 -13 -12 -21 -12c-14 0 -27 11 -24 28c26 60 42 125 42 191c0 103 -93 207 -163 282h-18v250h18z" fill="currentColor"/>
</g>
<g transform="translate(23.6114, 54.7097)">
<rect x="-0.0725" y="-3.3750" width="0.1451" height="3.1956" ry="0.0471" fill="currentColor"/>
</g>
<g transform="translate(22.3812, 78.1561)">
<path transform="scale(0.0040, -0.0040)" d="M215 137c67 0 111 -37 111 -92c0 -90 -111 -182 -215 -182c-67 0 -111 37 -111 92c0 90 111 182 215 182z" fill="currentColor"/>
</g>
<g transform="translate(22.3812, 73.6561)">
<path transform="scale(0.0040, -0.0040)" d="M215 137c67 0 111 -37 111 -92c0 -90 -111 -182 -215 -182c-67 0 -111 37 -111 92c0 90 111 182 215 182z" fill="currentColor"/>
</g>
<g transform="translate(21.5463, 70.1561)">
<text font-family="Georgia Pro Cond" font-size="2.4690" text-anchor="start" fill="currentColor">
<tspan>sin</tspan>
</text>
</g>
<g transform="translate(21.4459, 67.3561)">
<text font-family="Georgia Pro Cond" font-size="2.4690" text-anchor="start" fill="currentColor">
<tspan>sitt</tspan>
</text>
</g>
<g transform="translate(22.0083, 64.5561)">
<text font-family="Georgia Pro Cond" font-size="2.4690" text-anchor="start" fill="currentColor">
<tspan>är</tspan>
</text>
</g>
<g transform="translate(22.1489, 61.7561)">
<text font-family="Georgia Pro Cond" font-size="2.4690" text-anchor="start" fill="currentColor">
<tspan>la</tspan>
</text>
</g>
<g transform="translate(22.3812, 56.2097)">
<path transform="scale(0.0040, -0.0040)" d="M215 137c67 0 111 -37 111 -92c0 -90 -111 -182 -215 -182c-67 0 -111 37 -111 92c0 90 111 182 215 182z" fill="currentColor"/>
</g>
<g transform="translate(22.3812, 54.7097)">
<path transform="scale(0.0040, -0.0040)" d="M215 137c67 0 111 -37 111 -92c0 -90 -111 -182 -215 -182c-67 0 -111 37 -111 92c0 90 111 182 215 182z" fill="currentColor"/>
</g>
<g transform="translate(15.8192, 77.1561)">
<rect x="-0.0725" y="1.1794" width="0.1451" height="2.8206" ry="0.0471" fill="currentColor"/>
</g>
<g transform="translate(17.4954, 78.6561)">
<path transform="scale(0.0040, -0.0040)" d="M0 0c0 31 25 56 56 56s55 -25 55 -56s-24 -56 -55 -56s-56 25 -56 56z" fill="currentColor"/>
</g>
<g transform="translate(16.9769, 77.1561)">
<rect x="-0.0725" y="-6.0000" width="0.1451" height="2.3206" ry="0.0471" fill="currentColor"/>
</g>
<g transform="translate(17.4954, 73.6561)">
<path transform="scale(0.0040, -0.0040)" d="M0 0c0 31 25 56 56 56s55 -25 55 -56s-24 -56 -55 -56s-56 25 -56 56z" fill="currentColor"/>
</g>
<g transform="translate(22.4537, 77.1561)">
<rect x="-0.0725" y="1.1794" width="0.1451" height="2.9456" ry="0.0471" fill="currentColor"/>
</g>
<g transform="translate(26.6271, 74.1561)">
<path transform="scale(0.0040, -0.0040)" d="M215 137c67 0 111 -37 111 -92c0 -90 -111 -182 -215 -182c-67 0 -111 37 -111 92c0 90 111 182 215 182z" fill="currentColor"/>
</g>
<g transform="translate(24.9688, 70.1561)">
<text font-family="Georgia Pro Cond" font-size="2.4690" text-anchor="start" fill="currentColor">
<tspan>pryd</tspan>
</text>
</g>
<g transform="translate(48.3839, 70.1561)">
<text font-family="Georgia Pro Cond" font-size="2.4690" text-anchor="start" fill="currentColor">
<tspan>så</tspan>
</text>
</g>
<g transform="translate(26.7362, 64.5561)">
<text font-family="Georgia Pro Cond" font-size="2.4690" text-anchor="start" fill="currentColor">
<tspan>e</tspan>
</text>
</g>
<g transform="translate(25.0090, 61.7561)">
<text font-family="Georgia Pro Cond" font-size="2.4690" text-anchor="start" fill="currentColor">
<tspan>djup</tspan>
</text>
</g>
<g transform="translate(26.6271, 56.2097)">
<path transform="scale(0.0040, -0.0040)" d="M215 137c67 0 111 -37 111 -92c0 -90 -111 -182 -215 -182c-67 0 -111 37 -111 92c0 90 111 182 215 182z" fill="currentColor"/>
</g>
<g transform="translate(26.6271, 55.2097)">
<path transform="scale(0.0040, -0.0040)" d="M215 137c67 0 111 -37 111 -92c0 -90 -111 -182 -215 -182c-67 0 -111 37 -111 92c0 90 111 182 215 182z" fill="currentColor"/>
</g>
<g transform="translate(22.5262, 81.2341)">
<path transform="scale(0.0040, -0.0040)" d="M0 0h-18v250h18v-250zM0 0v250c96 59 222 149 222 259c0 57 -15 111 -40 162c-3 17 10 29 24 29c8 0 16 -5 21 -13c25 -56 40 -116 40 -178c0 -203 -267 -306 -267 -509z" fill="currentColor"/>
</g>
<g transform="translate(23.6840, 70.7032)">
<path transform="scale(0.0040, -0.0040)" d="M0 0c0 -197 207 -335 207 -532c0 -71 -15 -141 -41 -207c-5 -8 -13 -12 -21 -12c-14 0 -27 11 -24 28c26 60 42 125 42 191c0 103 -93 207 -163 282h-18v250h18z" fill="currentColor"/>
</g>
<g transform="translate(23.6114, 77.1561)">
<rect x="-0.0725" y="-6.5000" width="0.1451" height="2.8206" ry="0.0471" fill="currentColor"/>
</g>
<g transform="translate(22.5262, 59.1627)">
<path transform="scale(0.0040, -0.0040)" d="M0 0h-18v250h18v-250zM0 0v250c96 59 222 149 222 259c0 57 -15 111 -40 162c-3 17 10 29 24 29c8 0 16 -5 21 -13c25 -56 40 -116 40 -178c0 -203 -267 -306 -267 -509z" fill="currentColor"/>
</g>
<g transform="translate(22.4537, 54.7097)">
<rect x="-0.0725" y="1.6794" width="0.1451" height="2.8206" ry="0.0471" fill="currentColor"/>
</g>
<g transform="translate(8.8170, 76.1561)">
<path transform="scale(0.0040, -0.0040)" d="M558 -125c0 28 22 51 50 51s51 -23 51 -51s-23 -51 -51 -51s-50 23 -50 51zM558 125c0 28 22 51 50 51s51 -23 51 -51s-23 -51 -51 -51s-50 23 -50 51zM231 264c172 0 294 -88 294 -251c0 -263 -262 -416 -515 -523c-3 -3 -7 -4 -10 -4c-7 0 -14 7 -14 14c0 3 1 7 4 10
c201 118 410 265 410 492c0 119 -61 234 -169 234c-72 0 -124 -53 -148 -123c10 4 19 6 29 6c55 0 100 -45 100 -100c0 -58 -44 -106 -100 -106c-60 0 -112 47 -112 106c0 133 101 245 231 245z" fill="currentColor"/>
</g>
<g transform="translate(12.4466, 54.7097)">
<path transform="scale(0.0040, -0.0040)" d="M29 39l-2 -64v-11c0 -22 2 -43 5 -65c44 38 91 80 91 138c0 33 -13 66 -42 66c-31 0 -51 -31 -52 -64zM-28 454c9 5 18 8 28 8s19 -3 28 -8l-7 -343c25 23 58 36 92 36c51 0 87 -49 87 -103c0 -79 -84 -117 -144 -169c-16 -14 -25 -41 -47 -41c-14 0 -25 13 -25 27z" fill="currentColor"/>
</g>
<g transform="translate(8.8170, 55.7097)">
<path transform="scale(0.0040, -0.0040)" d="M646 2c0 -113 -74 -213 -180 -247c3 -34 5 -68 5 -102c0 -20 -1 -40 -2 -60c-7 -121 -91 -228 -209 -228c-108 0 -196 87 -196 196c0 58 53 104 112 104c54 0 95 -48 95 -104c0 -52 -43 -95 -95 -95c-10 0 -20 2 -29 6c26 -38 68 -63 116 -63h3c93 2 153 92 159 190
c1 19 2 37 2 56c0 30 -2 60 -4 90c-5 -1 -43 -8 -88 -8c-194 0 -333 180 -333 375c0 177 130 307 246 442c-31 98 -53 170 -53 347c0 115 55 223 148 290c7 5 16 4 22 -1c68 -80 134 -243 134 -357c0 -143 -85 -255 -178 -364c21 -68 40 -137 57 -206c1 0 5 1 11 1
c156 0 257 -129 257 -262zM462 -202c66 24 111 88 111 162c0 89 -65 178 -170 190c28 -135 50 -272 59 -352zM75 26c0 -145 141 -245 263 -245c1 0 46 0 81 6c-7 65 -27 206 -61 363c-79 -8 -124 -61 -124 -119c0 -43 25 -89 80 -121c5 -5 7 -11 7 -16
c0 -12 -10 -23 -22 -23c-16 0 -127 63 -127 188c0 89 58 175 161 198c-14 58 -29 116 -46 173c-106 -122 -212 -244 -212 -404zM406 1042c-99 -47 -162 -148 -162 -257c0 -49 13 -111 38 -191c79 97 144 199 144 324c0 33 0 63 -20 124z" fill="currentColor"/>
</g>
<g transform="translate(12.4466, 78.1561)">
<path transform="scale(0.0040, -0.0040)" d="M29 39l-2 -64v-11c0 -22 2 -43 5 -65c44 38 91 80 91 138c0 33 -13 66 -42 66c-31 0 -51 -31 -52 -64zM-28 454c9 5 18 8 28 8s19 -3 28 -8l-7 -343c25 23 58 36 92 36c51 0 87 -49 87 -103c0 -79 -84 -117 -144 -169c-16 -14 -25 -41 -47 -41c-14 0 -25 13 -25 27z" fill="currentColor"/>
</g>
<g transform="translate(7.9384, 65.9329)">
<rect x="0.0000" y="-13.2790" width="0.1786" height="26.5580" ry="0.0558" fill="currentColor"/>
</g>
<g transform="translate(6.6884, 52.4290)">
<path transform="scale(0.0040, -0.0040)" d="M0 -56v85c0 15 12 27 27 27h54c157 0 265 136 353 268c12 18 40 0 28 -18c-96 -144 -210 -362 -381 -362h-81z" fill="currentColor"/>
</g>
<g transform="translate(6.6884, 79.4369)">
<path transform="scale(0.0040, -0.0040)" d="M0 56h81c171 0 285 -218 381 -362c12 -18 -16 -36 -28 -18c-88 132 -196 268 -353 268h-54c-15 0 -27 12 -27 27v85z" fill="currentColor"/>
</g>
<g transform="translate(6.6884, 65.9329)">
<rect x="0.0000" y="-13.3240" width="0.4500" height="26.6480" ry="0.0000" fill="currentColor"/>
</g>
<g transform="translate(14.2490, 64.5561)">
<text font-family="Georgia Pro Cond" font-size="2.4690" text-anchor="start" fill="currentColor">
<tspan>Han</tspan>
</text>
</g>
<g transform="translate(15.8192, 54.7097)">
<rect x="-0.0725" y="1.6794" width="0.1451" height="2.6540" ry="0.0471" fill="currentColor"/>
</g>
<g transform="translate(17.4954, 56.2097)">
<path transform="scale(0.0040, -0.0040)" d="M0 0c0 31 25 56 56 56s55 -25 55 -56s-24 -56 -55 -56s-56 25 -56 56z" fill="currentColor"/>
</g>
<g transform="translate(16.9769, 54.7097)">
<rect x="-0.0725" y="-3.3333" width="0.1451" height="3.1540" ry="0.0471" fill="currentColor"/>
</g>
<g transform="translate(17.4954, 54.2097)">
<path transform="scale(0.0040, -0.0040)" d="M0 0c0 31 25 56 56 56s55 -25 55 -56s-24 -56 -55 -56s-56 25 -56 56z" fill="currentColor"/>
</g>
<g transform="translate(15.7466, 78.1561)">
<path transform="scale(0.0040, -0.0040)" d="M215 137c67 0 111 -37 111 -92c0 -90 -111 -182 -215 -182c-67 0 -111 37 -111 92c0 90 111 182 215 182z" fill="currentColor"/>
</g>
<g transform="translate(15.7466, 73.6561)">
<path transform="scale(0.0040, -0.0040)" d="M215 137c67 0 111 -37 111 -92c0 -90 -111 -182 -215 -182c-67 0 -111 37 -111 92c0 90 111 182 215 182z" fill="currentColor"/>
</g>
<g transform="translate(15.1930, 70.1561)">
<text font-family="Georgia Pro Cond" font-size="2.4690" text-anchor="start" fill="currentColor">
<tspan>på</tspan>
</text>
</g>
<g transform="translate(16.0566, 67.3561)">
<text font-family="Georgia Pro Cond" font-size="2.4690" text-anchor="start" fill="currentColor">
<tspan>i</tspan>
</text>
</g>
<g transform="translate(25.6517, 67.3561)">
<text font-family="Georgia Pro Cond" font-size="2.4690" text-anchor="start" fill="currentColor">
<tspan>kär</tspan>
</text>
</g>
<g transform="translate(14.9118, 61.7561)">
<text font-family="Georgia Pro Cond" font-size="2.4690" text-anchor="start" fill="currentColor">
<tspan>käl</tspan>
</text>
</g>
<g transform="translate(15.7466, 56.2097)">
<path transform="scale(0.0040, -0.0040)" d="M215 137c67 0 111 -37 111 -92c0 -90 -111 -182 -215 -182c-67 0 -111 37 -111 92c0 90 111 182 215 182z" fill="currentColor"/>
</g>
<g transform="translate(15.7466, 54.7097)">
<path transform="scale(0.0040, -0.0040)" d="M215 137c67 0 111 -37 111 -92c0 -90 -111 -182 -215 -182c-67 0 -111 37 -111 92c0 90 111 182 215 182z" fill="currentColor"/>
</g>
<g transform="translate(40.0120, 54.7097)">
<rect x="-0.0725" y="2.2530" width="0.1451" height="2.4137" ry="0.0471" fill="currentColor"/>
</g>
<g transform="translate(41.7661, 57.2097)">
<path transform="scale(0.0040, -0.0040)" d="M0 0c0 31 25 56 56 56s55 -25 55 -56s-24 -56 -55 -56s-56 25 -56 56z" fill="currentColor"/>
</g>
<g transform="translate(41.2475, 54.7097)">
<rect x="-0.0725" y="-2.5000" width="0.1451" height="3.2470" ry="0.0471" fill="currentColor"/>
</g>
<g transform="translate(41.7661, 55.2097)">
<path transform="scale(0.0040, -0.0040)" d="M0 0c0 31 25 56 56 56s55 -25 55 -56s-24 -56 -55 -56s-56 25 -56 56z" fill="currentColor"/>
</g>
<g transform="translate(41.7661, 73.6561)">
<path transform="scale(0.0040, -0.0040)" d="M0 0c0 31 25 56 56 56s55 -25 55 -56s-24 -56 -55 -56s-56 25 -56 56z" fill="currentColor"/>
</g>
<g transform="translate(39.9395, 77.6561)">
<path transform="scale(0.0040, -0.0040)" d="M312 64c0 23 -18 41 -41 41c-39 0 -201 -110 -228 -142c-7 -8 -10 -17 -10 -27c0 -23 18 -41 41 -41c39 0 201 110 228 142c7 8 10 17 10 27zM259 137c46 0 86 -17 86 -74c0 -26 -15 -112 -73 -151c-29 -20 -89 -49 -186 -49c-46 0 -86 17 -86 74c0 26 16 112 74 151
c29 20 88 49 185 49z" fill="currentColor"/>
</g>
<g transform="translate(39.9395, 74.1561)">
<path transform="scale(0.0040, -0.0040)" d="M312 64c0 23 -18 41 -41 41c-39 0 -201 -110 -228 -142c-7 -8 -10 -17 -10 -27c0 -23 18 -41 41 -41c39 0 201 110 228 142c7 8 10 17 10 27zM259 137c46 0 86 -17 86 -74c0 -26 -15 -112 -73 -151c-29 -20 -89 -49 -186 -49c-46 0 -86 17 -86 74c0 26 16 112 74 151
c29 20 88 49 185 49z" fill="currentColor"/>
</g>
<g transform="translate(38.8021, 70.1561)">
<text font-family="Georgia Pro Cond" font-size="2.4690" text-anchor="start" fill="currentColor">
<tspan>ser,</tspan>
</text>
</g>
<g transform="translate(38.6214, 67.3561)">
<text font-family="Georgia Pro Cond" font-size="2.4690" text-anchor="start" fill="currentColor">
<tspan>råd,</tspan>
</text>
</g>
<g transform="translate(37.8180, 64.5561)">
<text font-family="Georgia Pro Cond" font-size="2.4690" text-anchor="start" fill="currentColor">
<tspan>min”.</tspan>
</text>
</g>
<g transform="translate(38.6816, 61.7561)">
<text font-family="Georgia Pro Cond" font-size="2.4690" text-anchor="start" fill="currentColor">
<tspan>klar</tspan>
</text>
</g>
<g transform="translate(26.6271, 76.1561)">
<path transform="scale(0.0040, -0.0040)" d="M215 137c67 0 111 -37 111 -92c0 -90 -111 -182 -215 -182c-67 0 -111 37 -111 92c0 90 111 182 215 182z" fill="currentColor"/>
</g>
<g transform="translate(39.9395, 56.7097)">
<path transform="scale(0.0040, -0.0040)" d="M312 64c0 23 -18 41 -41 41c-39 0 -201 -110 -228 -142c-7 -8 -10 -17 -10 -27c0 -23 18 -41 41 -41c39 0 201 110 228 142c7 8 10 17 10 27zM259 137c46 0 86 -17 86 -74c0 -26 -15 -112 -73 -151c-29 -20 -89 -49 -186 -49c-46 0 -86 17 -86 74c0 26 16 112 74 151
c29 20 88 49 185 49z" fill="currentColor"/>
</g>
<g transform="translate(39.9395, 55.7097)">
<path transform="scale(0.0040, -0.0040)" d="M312 64c0 23 -18 41 -41 41c-39 0 -201 -110 -228 -142c-7 -8 -10 -17 -10 -27c0 -23 18 -41 41 -41c39 0 201 110 228 142c7 8 10 17 10 27zM259 137c46 0 86 -17 86 -74c0 -26 -15 -112 -73 -151c-29 -20 -89 -49 -186 -49c-46 0 -86 17 -86 74c0 26 16 112 74 151
c29 20 88 49 185 49z" fill="currentColor"/>
</g>
<g transform="translate(47.6609, 67.3561)">
<text font-family="Georgia Pro Cond" font-size="2.4690" text-anchor="start" fill="currentColor">
<tspan>och</tspan>
</text>
</g>
<g transform="translate(47.8416, 64.5561)">
<text font-family="Georgia Pro Cond" font-size="2.4690" text-anchor="start" fill="currentColor">
<tspan>Väl</tspan>
</text>
</g>
<g transform="translate(48.3036, 61.7561)">
<text font-family="Georgia Pro Cond" font-size="2.4690" text-anchor="start" fill="currentColor">
<tspan>av</tspan>
</text>
</g>
<g transform="translate(48.7769, 56.7097)">
<path transform="scale(0.0040, -0.0040)" d="M215 137c67 0 111 -37 111 -92c0 -90 -111 -182 -215 -182c-67 0 -111 37 -111 92c0 90 111 182 215 182z" fill="currentColor"/>
</g>
<g transform="translate(48.7769, 55.7097)">
<path transform="scale(0.0040, -0.0040)" d="M215 137c67 0 111 -37 111 -92c0 -90 -111 -182 -215 -182c-67 0 -111 37 -111 92c0 90 111 182 215 182z" fill="currentColor"/>
</g>
<g transform="translate(40.0120, 77.1561)">
<rect x="-0.0725" y="0.7530" width="0.1451" height="2.9137" ry="0.0471" fill="currentColor"/>
</g>
<g transform="translate(41.7661, 77.6561)">
<path transform="scale(0.0040, -0.0040)" d="M0 0c0 31 25 56 56 56s55 -25 55 -56s-24 -56 -55 -56s-56 25 -56 56z" fill="currentColor"/>
</g>
<g transform="translate(41.2475, 77.1561)">
<rect x="-0.0725" y="-5.5000" width="0.1451" height="2.2470" ry="0.0471" fill="currentColor"/>
</g>
<g transform="translate(33.2229, 54.7097)">
<rect x="-0.0725" y="-3.3333" width="0.1451" height="3.1540" ry="0.0471" fill="currentColor"/>
</g>
<g transform="translate(31.9926, 73.6561)">
<path transform="scale(0.0040, -0.0040)" d="M215 137c67 0 111 -37 111 -92c0 -90 -111 -182 -215 -182c-67 0 -111 37 -111 92c0 90 111 182 215 182z" fill="currentColor"/>
</g>
<g transform="translate(30.7762, 70.1561)">
<text font-family="Georgia Pro Cond" font-size="2.4690" text-anchor="start" fill="currentColor">
<tspan>nad</tspan>
</text>
</g>
<g transform="translate(30.6958, 67.3561)">
<text font-family="Georgia Pro Cond" font-size="2.4690" text-anchor="start" fill="currentColor">
<tspan>leks</tspan>
</text>
</g>
<g transform="translate(30.7762, 64.5561)">
<text font-family="Georgia Pro Cond" font-size="2.4690" text-anchor="start" fill="currentColor">
<tspan>vigt</tspan>
</text>
</g>
<g transform="translate(30.8766, 61.7561)">
<text font-family="Georgia Pro Cond" font-size="2.4690" text-anchor="start" fill="currentColor">
<tspan>och</tspan>
</text>
</g>
<g transform="translate(31.9926, 56.2097)">
<path transform="scale(0.0040, -0.0040)" d="M215 137c67 0 111 -37 111 -92c0 -90 -111 -182 -215 -182c-67 0 -111 37 -111 92c0 90 111 182 215 182z" fill="currentColor"/>
</g>
<g transform="translate(31.9926, 54.7097)">
<path transform="scale(0.0040, -0.0040)" d="M215 137c67 0 111 -37 111 -92c0 -90 -111 -182 -215 -182c-67 0 -111 37 -111 92c0 90 111 182 215 182z" fill="currentColor"/>
</g>
<g transform="translate(31.9926, 78.1561)">
<path transform="scale(0.0040, -0.0040)" d="M215 137c67 0 111 -37 111 -92c0 -90 -111 -182 -215 -182c-67 0 -111 37 -111 92c0 90 111 182 215 182z" fill="currentColor"/>
</g>
<g transform="translate(26.6996, 77.1561)">
<rect x="-0.0725" y="-0.8206" width="0.1451" height="3.3206" ry="0.0471" fill="currentColor"/>
</g>
<g transform="translate(27.8574, 77.1561)">
<rect x="-0.0725" y="-5.5000" width="0.1451" height="2.3206" ry="0.0471" fill="currentColor"/>
</g>
<g transform="translate(27.8574, 54.7097)">
<rect x="-0.0725" y="-3.0000" width="0.1451" height="3.3206" ry="0.0471" fill="currentColor"/>
</g>
<g transform="translate(32.0651, 77.1561)">
<rect x="-0.0725" y="1.1794" width="0.1451" height="2.8206" ry="0.0471" fill="currentColor"/>
</g>
<g transform="translate(33.2229, 77.1561)">
<rect x="-0.0725" y="-6.0000" width="0.1451" height="2.3206" ry="0.0471" fill="currentColor"/>
</g>
<g transform="translate(32.0651, 54.7097)">
<rect x="-0.0725" y="1.6794" width="0.1451" height="2.6540" ry="0.0471" fill="currentColor"/>
</g>
<g transform="translate(26.6996, 54.7097)">
<rect x="-0.0725" y="1.6794" width="0.1451" height="2.6540" ry="0.0471" fill="currentColor"/>
</g>
<g transform="translate(8.0170, 100.5951)">
<line stroke-linejoin="round" stroke-linecap="round" stroke-width="0.1116" stroke="currentColor" x1="0.0558" y1="0" x2="70.9255" y2="0"/>
</g>
<g transform="translate(8.0170, 99.5951)">
<line stroke-linejoin="round" stroke-linecap="round" stroke-width="0.1116" stroke="currentColor" x1="0.0558" y1="0" x2="70.9255" y2="0"/>
</g>
<g transform="translate(8.0170, 98.5951)">
<line stroke-linejoin="round" stroke-linecap="round" stroke-width="0.1116" stroke="currentColor" x1="0.0558" y1="0" x2="70.9255" y2="0"/>
</g>
<g transform="translate(8.0170, 97.5951)">
<line stroke-linejoin="round" stroke-linecap="round" stroke-width="0.1116" stroke="currentColor" x1="0.0558" y1="0" x2="70.9255" y2="0"/>
</g>
<g transform="translate(8.0170, 96.5951)">
<line stroke-linejoin="round" stroke-linecap="round" stroke-width="0.1116" stroke="currentColor" x1="0.0558" y1="0" x2="70.9255" y2="0"/>
</g>
<g transform="translate(8.0170, 101.5951)">
<rect x="60.4087" y="-0.1058" width="2.0709" height="0.2116" ry="0.1058" fill="currentColor"/>
</g>
<g transform="translate(8.0170, 101.5951)">
<rect x="50.2561" y="-0.1058" width="1.9542" height="0.2116" ry="0.1058" fill="currentColor"/>
</g>
<g transform="translate(8.0170, 101.5951)">
<rect x="42.7149" y="-0.1058" width="1.9542" height="0.2116" ry="0.1058" fill="currentColor"/>
</g>
<g transform="translate(8.0170, 101.5951)">
<rect x="36.4765" y="-0.1058" width="1.9542" height="0.2116" ry="0.1058" fill="currentColor"/>
</g>
<g transform="translate(8.0170, 101.5951)">
<rect x="30.2382" y="-0.1058" width="1.9542" height="0.2116" ry="0.1058" fill="currentColor"/>
</g>
<g transform="translate(66.0264, 98.5951)">
<rect x="0.0000" y="-2.0000" width="0.2120" height="4.0000" ry="0.0000" fill="currentColor"/>
</g>
<g transform="translate(8.0170, 117.8583)">
<rect x="7.3845" y="-0.1058" width="2.0709" height="0.2116" ry="0.1058" fill="currentColor"/>
</g>
<g transform="translate(8.0170, 122.8583)">
<line stroke-linejoin="round" stroke-linecap="round" stroke-width="0.1116" stroke="currentColor" x1="0.0558" y1="0" x2="70.9255" y2="0"/>
</g>
<g transform="translate(8.0170, 121.8583)">
<line stroke-linejoin="round" stroke-linecap="round" stroke-width="0.1116" stroke="currentColor" x1="0.0558" y1="0" x2="70.9255" y2="0"/>
</g>
<g transform="translate(8.0170, 120.8583)">
<line stroke-linejoin="round" stroke-linecap="round" stroke-width="0.1116" stroke="currentColor" x1="0.0558" y1="0" x2="70.9255" y2="0"/>
</g>
<g transform="translate(8.0170, 119.8583)">
<line stroke-linejoin="round" stroke-linecap="round" stroke-width="0.1116" stroke="currentColor" x1="0.0558" y1="0" x2="70.9255" y2="0"/>
</g>
<g transform="translate(8.0170, 118.8583)">
<line stroke-linejoin="round" stroke-linecap="round" stroke-width="0.1116" stroke="currentColor" x1="0.0558" y1="0" x2="70.9255" y2="0"/>
</g>
<g transform="translate(66.0264, 120.8583)">
<rect x="0.0000" y="-2.0000" width="0.2120" height="4.0000" ry="0.0000" fill="currentColor"/>
</g>
<g transform="translate(36.9180, 98.5951)">
<rect x="0.0000" y="-2.0000" width="0.2120" height="4.0000" ry="0.0000" fill="currentColor"/>
</g>
<g transform="translate(36.9180, 120.8583)">
<rect x="0.0000" y="-2.0000" width="0.2120" height="4.0000" ry="0.0000" fill="currentColor"/>
</g>
<g transform="translate(58.6713, 98.5951)">
<rect x="-0.0725" y="3.1794" width="0.1451" height="2.3206" ry="0.0471" fill="currentColor"/>
</g>
<g transform="translate(59.8290, 98.5951)">
<rect x="-0.0725" y="-1.8033" width="0.1451" height="2.6239" ry="0.0471" fill="currentColor"/>
</g>
<g transform="translate(58.5987, 121.3583)">
<path transform="scale(0.0040, -0.0040)" d="M215 137c67 0 111 -37 111 -92c0 -90 -111 -182 -215 -182c-67 0 -111 37 -111 92c0 90 111 182 215 182z" fill="currentColor"/>
</g>
<g transform="translate(58.5987, 118.3583)">
<path transform="scale(0.0040, -0.0040)" d="M215 137c67 0 111 -37 111 -92c0 -90 -111 -182 -215 -182c-67 0 -111 37 -111 92c0 90 111 182 215 182z" fill="currentColor"/>
</g>
<g transform="translate(58.5987, 114.8230)">
<text font-family="Georgia Pro Cond" font-size="2.4690" text-anchor="start" fill="currentColor">
<tspan>Han</tspan>
</text>
</g>
<g transform="translate(58.5987, 112.0230)">
<text font-family="Georgia Pro Cond" font-size="2.4690" text-anchor="start" fill="currentColor">
<tspan>hans</tspan>
</text>
</g>
<g transform="translate(58.5987, 109.2230)">
<text font-family="Georgia Pro Cond" font-size="2.4690" text-anchor="start" fill="currentColor">
<tspan>och</tspan>
</text>
</g>
<g transform="translate(58.5987, 106.4230)">
<text font-family="Georgia Pro Cond" font-size="2.4690" text-anchor="start" fill="currentColor">
<tspan>och</tspan>
</text>
</g>
<g transform="translate(58.5987, 101.5951)">
<path transform="scale(0.0040, -0.0040)" d="M215 137c67 0 111 -37 111 -92c0 -90 -111 -182 -215 -182c-67 0 -111 37 -111 92c0 90 111 182 215 182z" fill="currentColor"/>
</g>
<g transform="translate(58.5987, 99.5951)">
<path transform="scale(0.0040, -0.0040)" d="M215 137c67 0 111 -37 111 -92c0 -90 -111 -182 -215 -182c-67 0 -111 37 -111 92c0 90 111 182 215 182z" fill="currentColor"/>
</g>
<g transform="translate(62.1193, 100.5951)">
<path transform="scale(0.0040, -0.0040)" d="M215 137c67 0 111 -37 111 -92c0 -90 -111 -182 -215 -182c-67 0 -111 37 -111 92c0 90 111 182 215 182z" fill="currentColor"/>
</g>
<g transform="translate(63.3496, 120.8583)">
<rect x="-0.0725" y="-4.1967" width="0.1451" height="2.5173" ry="0.0471" fill="currentColor"/>
</g>
<g transform="translate(63.3496, 98.5951)">
<rect x="-0.0725" y="-1.1967" width="0.1451" height="3.0173" ry="0.0471" fill="currentColor"/>
</g>
<g transform="translate(62.1193, 119.3583)">
<path transform="scale(0.0040, -0.0040)" d="M215 137c67 0 111 -37 111 -92c0 -90 -111 -182 -215 -182c-67 0 -111 37 -111 92c0 90 111 182 215 182z" fill="currentColor"/>
</g>
<g transform="translate(58.6713, 120.8583)">
<rect x="-0.0725" y="0.6794" width="0.1451" height="2.9873" ry="0.0471" fill="currentColor"/>
</g>
<g transform="translate(59.8290, 120.8583)">
<rect x="-0.0725" y="-4.8033" width="0.1451" height="2.1239" ry="0.0471" fill="currentColor"/>
</g>
<g transform="translate(51.0576, 112.0230)">
<text font-family="Georgia Pro Cond" font-size="2.4690" text-anchor="start" fill="currentColor">
<tspan>av</tspan>
</text>
</g>
<g transform="translate(51.1301, 98.5951)">
<rect x="-0.0725" y="3.1794" width="0.1451" height="2.3206" ry="0.0471" fill="currentColor"/>
</g>
<g transform="translate(52.2879, 98.5951)">
<rect x="-0.0725" y="-1.0034" width="0.1451" height="2.8240" ry="0.0471" fill="currentColor"/>
</g>
<g transform="translate(51.0576, 121.3583)">
<path transform="scale(0.0040, -0.0040)" d="M215 137c67 0 111 -37 111 -92c0 -90 -111 -182 -215 -182c-67 0 -111 37 -111 92c0 90 111 182 215 182z" fill="currentColor"/>
</g>
<g transform="translate(51.0576, 119.3583)">
<path transform="scale(0.0040, -0.0040)" d="M215 137c67 0 111 -37 111 -92c0 -90 -111 -182 -215 -182c-67 0 -111 37 -111 92c0 90 111 182 215 182z" fill="currentColor"/>
</g>
<g transform="translate(51.0576, 114.8230)">
<text font-family="Georgia Pro Cond" font-size="2.4690" text-anchor="start" fill="currentColor">
<tspan>lön</tspan>
</text>
</g>
<g transform="translate(51.0576, 109.2230)">
<text font-family="Georgia Pro Cond" font-size="2.4690" text-anchor="start" fill="currentColor">
<tspan>själ</tspan>
</text>
</g>
<g transform="translate(51.0576, 106.4230)">
<text font-family="Georgia Pro Cond" font-size="2.4690" text-anchor="start" fill="currentColor">
<tspan>är</tspan>
</text>
</g>
<g transform="translate(51.0576, 101.5951)">
<path transform="scale(0.0040, -0.0040)" d="M215 137c67 0 111 -37 111 -92c0 -90 -111 -182 -215 -182c-67 0 -111 37 -111 92c0 90 111 182 215 182z" fill="currentColor"/>
</g>
<g transform="translate(51.0576, 100.5951)">
<path transform="scale(0.0040, -0.0040)" d="M215 137c67 0 111 -37 111 -92c0 -90 -111 -182 -215 -182c-67 0 -111 37 -111 92c0 90 111 182 215 182z" fill="currentColor"/>
</g>
<g transform="translate(44.8918, 120.8583)">
<rect x="-0.0725" y="0.6794" width="0.1451" height="2.9873" ry="0.0471" fill="currentColor"/>
</g>
<g transform="translate(56.0584, 120.8583)">
<rect x="-0.0725" y="-4.4941" width="0.1451" height="2.3148" ry="0.0471" fill="currentColor"/>
</g>
<g transform="translate(56.0584, 98.5951)">
<rect x="-0.0725" y="-1.1808" width="0.1451" height="2.5014" ry="0.0471" fill="currentColor"/>
</g>
<g transform="translate(54.8282, 118.8583)">
<path transform="scale(0.0040, -0.0040)" d="M215 137c67 0 111 -37 111 -92c0 -90 -111 -182 -215 -182c-67 0 -111 37 -111 92c0 90 111 182 215 182z" fill="currentColor"/>
</g>
<g transform="translate(54.8282, 100.0951)">
<path transform="scale(0.0040, -0.0040)" d="M215 137c67 0 111 -37 111 -92c0 -90 -111 -182 -215 -182c-67 0 -111 37 -111 92c0 90 111 182 215 182z" fill="currentColor"/>
</g>
<g transform="translate(51.1301, 120.8583)">
<rect x="-0.0725" y="0.6794" width="0.1451" height="2.9873" ry="0.0471" fill="currentColor"/>
</g>
<g transform="translate(52.2879, 120.8583)">
<rect x="-0.0725" y="-4.1901" width="0.1451" height="2.5107" ry="0.0471" fill="currentColor"/>
</g>
<g transform="translate(19.9952, 114.8230)">
<rect x="0.0000" y="-0.5651" width="0.6600" height="0.1451" ry="0.0446" fill="currentColor"/>
</g>
<g transform="translate(20.3065, 112.0230)">
<rect x="0.0000" y="-0.5651" width="0.6600" height="0.1451" ry="0.0446" fill="currentColor"/>
</g>
<g transform="translate(20.6077, 109.2230)">
<rect x="0.0000" y="-0.5651" width="0.6600" height="0.1451" ry="0.0446" fill="currentColor"/>
</g>
<g transform="translate(19.8244, 106.4230)">
<rect x="0.0000" y="-0.5651" width="0.6600" height="0.1451" ry="0.0446" fill="currentColor"/>
</g>
<g transform="translate(52.2153, 97.5951)">
<polygon stroke-linejoin="round" stroke-linecap="round" stroke-width="0.0941" fill="currentColor" stroke="currentColor" points="3.8686 -0.3771 3.8686 0.0087 0.0471 0.1929 0.0471 -0.1929"/>
</g>
<g transform="translate(59.7565, 116.0425)">
<polygon stroke-linejoin="round" stroke-linecap="round" stroke-width="0.0941" fill="currentColor" stroke="currentColor" points="3.6186 0.4387 3.6186 0.8245 0.0471 0.1929 0.0471 -0.1929"/>
</g>
<g transform="translate(59.7565, 96.7793)">
<polygon stroke-linejoin="round" stroke-linecap="round" stroke-width="0.0941" fill="currentColor" stroke="currentColor" points="3.6186 0.4387 3.6186 0.8245 0.0471 0.1929 0.0471 -0.1929"/>
</g>
<g transform="translate(52.2153, 116.6741)">
<polygon stroke-linejoin="round" stroke-linecap="round" stroke-width="0.0941" fill="currentColor" stroke="currentColor" points="3.8686 -0.5087 3.8686 -0.1229 0.0471 0.1929 0.0471 -0.1929"/>
</g>
<g transform="translate(42.2424, 112.0230)">
<rect x="0.0000" y="-0.5651" width="0.6600" height="0.1451" ry="0.0446" fill="currentColor"/>
</g>
<g transform="translate(42.3830, 109.2230)">
<rect x="0.0000" y="-0.5651" width="0.6600" height="0.1451" ry="0.0446" fill="currentColor"/>
</g>
<g transform="translate(41.3587, 106.4230)">
<rect x="0.0000" y="-0.5651" width="0.6600" height="0.1451" ry="0.0446" fill="currentColor"/>
</g>
<g transform="translate(68.8433, 98.5951)">
<rect x="-0.0725" y="3.2530" width="0.1451" height="2.2470" ry="0.0471" fill="currentColor"/>
</g>
<g transform="translate(70.5973, 102.0951)">
<path transform="scale(0.0040, -0.0040)" d="M0 0c0 31 25 56 56 56s55 -25 55 -56s-24 -56 -55 -56s-56 25 -56 56z" fill="currentColor"/>
</g>
<g transform="translate(70.0788, 98.5951)">
<rect x="-0.0725" y="-2.0000" width="0.1451" height="3.2470" ry="0.0471" fill="currentColor"/>
</g>
<g transform="translate(70.5973, 100.0951)">
<path transform="scale(0.0040, -0.0040)" d="M0 0c0 31 25 56 56 56s55 -25 55 -56s-24 -56 -55 -56s-56 25 -56 56z" fill="currentColor"/>
</g>
<g transform="translate(68.7708, 119.8583)">
<path transform="scale(0.0040, -0.0040)" d="M312 64c0 23 -18 41 -41 41c-39 0 -201 -110 -228 -142c-7 -8 -10 -17 -10 -27c0 -23 18 -41 41 -41c39 0 201 110 228 142c7 8 10 17 10 27zM259 137c46 0 86 -17 86 -74c0 -26 -15 -112 -73 -151c-29 -20 -89 -49 -186 -49c-46 0 -86 17 -86 74c0 26 16 112 74 151
c29 20 88 49 185 49z" fill="currentColor"/>
</g>
<g transform="translate(68.7708, 118.8583)">
<path transform="scale(0.0040, -0.0040)" d="M312 64c0 23 -18 41 -41 41c-39 0 -201 -110 -228 -142c-7 -8 -10 -17 -10 -27c0 -23 18 -41 41 -41c39 0 201 110 228 142c7 8 10 17 10 27zM259 137c46 0 86 -17 86 -74c0 -26 -15 -112 -73 -151c-29 -20 -89 -49 -186 -49c-46 0 -86 17 -86 74c0 26 16 112 74 151
c29 20 88 49 185 49z" fill="currentColor"/>
</g>
<g transform="translate(67.5330, 114.8230)">
<text font-family="Georgia Pro Cond" font-size="2.4690" text-anchor="start" fill="currentColor">
<tspan>ger,</tspan>
</text>
</g>
<g transform="translate(67.2518, 112.0230)">
<text font-family="Georgia Pro Cond" font-size="2.4690" text-anchor="start" fill="currentColor">
<tspan>nåd.</tspan>
</text>
</g>
<g transform="translate(66.9706, 109.2230)">
<text font-family="Georgia Pro Cond" font-size="2.4690" text-anchor="start" fill="currentColor">
<tspan>sinn.</tspan>
</text>
</g>
<g transform="translate(67.5330, 106.4230)">
<text font-family="Georgia Pro Cond" font-size="2.4690" text-anchor="start" fill="currentColor">
<tspan>var.</tspan>
</text>
</g>
<g transform="translate(68.7708, 101.5951)">
<path transform="scale(0.0040, -0.0040)" d="M312 64c0 23 -18 41 -41 41c-39 0 -201 -110 -228 -142c-7 -8 -10 -17 -10 -27c0 -23 18 -41 41 -41c39 0 201 110 228 142c7 8 10 17 10 27zM259 137c46 0 86 -17 86 -74c0 -26 -15 -112 -73 -151c-29 -20 -89 -49 -186 -49c-46 0 -86 17 -86 74c0 26 16 112 74 151
c29 20 88 49 185 49z" fill="currentColor"/>
</g>
<g transform="translate(68.7708, 100.0951)">
<path transform="scale(0.0040, -0.0040)" d="M312 64c0 23 -18 41 -41 41c-39 0 -201 -110 -228 -142c-7 -8 -10 -17 -10 -27c0 -23 18 -41 41 -41c39 0 201 110 228 142c7 8 10 17 10 27zM259 137c46 0 86 -17 86 -74c0 -26 -15 -112 -73 -151c-29 -20 -89 -49 -186 -49c-46 0 -86 17 -86 74c0 26 16 112 74 151
c29 20 88 49 185 49z" fill="currentColor"/>
</g>
<g transform="translate(68.8433, 120.8583)">
<rect x="-0.0725" y="-0.7470" width="0.1451" height="3.2470" ry="0.0471" fill="currentColor"/>
</g>
<g transform="translate(70.5973, 120.3583)">
<path transform="scale(0.0040, -0.0040)" d="M0 0c0 31 25 56 56 56s55 -25 55 -56s-24 -56 -55 -56s-56 25 -56 56z" fill="currentColor"/>
</g>
<g transform="translate(70.0788, 120.8583)">
<rect x="-0.0725" y="-4.6667" width="0.1451" height="2.4137" ry="0.0471" fill="currentColor"/>
</g>
<g transform="translate(70.5973, 118.3583)">
<path transform="scale(0.0040, -0.0040)" d="M0 0c0 31 25 56 56 56s55 -25 55 -56s-24 -56 -55 -56s-56 25 -56 56z" fill="currentColor"/>
</g>
<g transform="translate(23.1088, 114.8230)">
<text font-family="Georgia Pro Cond" font-size="2.4690" text-anchor="start" fill="currentColor">
<tspan>sus,</tspan>
</text>
</g>
<g transform="translate(23.2694, 112.0230)">
<text font-family="Georgia Pro Cond" font-size="2.4690" text-anchor="start" fill="currentColor">
<tspan>gen</tspan>
</text>
</g>
<g transform="translate(24.1732, 109.2230)">
<text font-family="Georgia Pro Cond" font-size="2.4690" text-anchor="start" fill="currentColor">
<tspan>la</tspan>
</text>
</g>
<g transform="translate(22.4862, 106.4230)">
<text font-family="Georgia Pro Cond" font-size="2.4690" text-anchor="start" fill="currentColor">
<tspan>dom,</tspan>
</text>
</g>
<g transform="translate(24.4055, 101.0951)">
<path transform="scale(0.0040, -0.0040)" d="M215 137c67 0 111 -37 111 -92c0 -90 -111 -182 -215 -182c-67 0 -111 37 -111 92c0 90 111 182 215 182z" fill="currentColor"/>
</g>
<g transform="translate(24.4055, 99.5951)">
<path transform="scale(0.0040, -0.0040)" d="M215 137c67 0 111 -37 111 -92c0 -90 -111 -182 -215 -182c-67 0 -111 37 -111 92c0 90 111 182 215 182z" fill="currentColor"/>
</g>
<g transform="translate(15.8192, 120.8583)">
<rect x="-0.0725" y="-0.7470" width="0.1451" height="3.2470" ry="0.0471" fill="currentColor"/>
</g>
<g transform="translate(24.4055, 118.3583)">
<path transform="scale(0.0040, -0.0040)" d="M215 137c67 0 111 -37 111 -92c0 -90 -111 -182 -215 -182c-67 0 -111 37 -111 92c0 90 111 182 215 182z" fill="currentColor"/>
</g>
<g transform="translate(17.0547, 120.8583)">
<rect x="-0.0725" y="-5.5000" width="0.1451" height="2.2470" ry="0.0471" fill="currentColor"/>
</g>
<g transform="translate(15.8192, 98.5951)">
<rect x="-0.0725" y="1.7530" width="0.1451" height="2.5804" ry="0.0471" fill="currentColor"/>
</g>
<g transform="translate(25.6358, 120.8583)">
<rect x="-0.0725" y="-5.0000" width="0.1451" height="2.3206" ry="0.0471" fill="currentColor"/>
</g>
<g transform="translate(30.6439, 101.0951)">
<path transform="scale(0.0040, -0.0040)" d="M215 137c67 0 111 -37 111 -92c0 -90 -111 -182 -215 -182c-67 0 -111 37 -111 92c0 90 111 182 215 182z" fill="currentColor"/>
</g>
<g transform="translate(24.4781, 120.8583)">
<rect x="-0.0725" y="1.1794" width="0.1451" height="2.8206" ry="0.0471" fill="currentColor"/>
</g>
<g transform="translate(24.4781, 98.5951)">
<rect x="-0.0725" y="2.6794" width="0.1451" height="2.3206" ry="0.0471" fill="currentColor"/>
</g>
<g transform="translate(25.6358, 98.5951)">
<rect x="-0.0725" y="-2.5000" width="0.1451" height="3.3206" ry="0.0471" fill="currentColor"/>
</g>
<g transform="translate(24.4055, 121.8583)">
<path transform="scale(0.0040, -0.0040)" d="M215 137c67 0 111 -37 111 -92c0 -90 -111 -182 -215 -182c-67 0 -111 37 -111 92c0 90 111 182 215 182z" fill="currentColor"/>
</g>
<g transform="translate(8.8170, 99.5951)">
<path transform="scale(0.0040, -0.0040)" d="M646 2c0 -113 -74 -213 -180 -247c3 -34 5 -68 5 -102c0 -20 -1 -40 -2 -60c-7 -121 -91 -228 -209 -228c-108 0 -196 87 -196 196c0 58 53 104 112 104c54 0 95 -48 95 -104c0 -52 -43 -95 -95 -95c-10 0 -20 2 -29 6c26 -38 68 -63 116 -63h3c93 2 153 92 159 190
c1 19 2 37 2 56c0 30 -2 60 -4 90c-5 -1 -43 -8 -88 -8c-194 0 -333 180 -333 375c0 177 130 307 246 442c-31 98 -53 170 -53 347c0 115 55 223 148 290c7 5 16 4 22 -1c68 -80 134 -243 134 -357c0 -143 -85 -255 -178 -364c21 -68 40 -137 57 -206c1 0 5 1 11 1
c156 0 257 -129 257 -262zM462 -202c66 24 111 88 111 162c0 89 -65 178 -170 190c28 -135 50 -272 59 -352zM75 26c0 -145 141 -245 263 -245c1 0 46 0 81 6c-7 65 -27 206 -61 363c-79 -8 -124 -61 -124 -119c0 -43 25 -89 80 -121c5 -5 7 -11 7 -16
c0 -12 -10 -23 -22 -23c-16 0 -127 63 -127 188c0 89 58 175 161 198c-14 58 -29 116 -46 173c-106 -122 -212 -244 -212 -404zM406 1042c-99 -47 -162 -148 -162 -257c0 -49 13 -111 38 -191c79 97 144 199 144 324c0 33 0 63 -20 124z" fill="currentColor"/>
</g>
<g transform="translate(12.4466, 98.5951)">
<path transform="scale(0.0040, -0.0040)" d="M29 39l-2 -64v-11c0 -22 2 -43 5 -65c44 38 91 80 91 138c0 33 -13 66 -42 66c-31 0 -51 -31 -52 -64zM-28 454c9 5 18 8 28 8s19 -3 28 -8l-7 -343c25 23 58 36 92 36c51 0 87 -49 87 -103c0 -79 -84 -117 -144 -169c-16 -14 -25 -41 -47 -41c-14 0 -25 13 -25 27z" fill="currentColor"/>
</g>
<g transform="translate(7.9384, 109.7267)">
<rect x="0.0000" y="-13.1874" width="0.1786" height="26.3748" ry="0.0558" fill="currentColor"/>
</g>
<g transform="translate(6.6884, 96.3143)">
<path transform="scale(0.0040, -0.0040)" d="M0 -56v85c0 15 12 27 27 27h54c157 0 265 136 353 268c12 18 40 0 28 -18c-96 -144 -210 -362 -381 -362h-81z" fill="currentColor"/>
</g>
<g transform="translate(6.6884, 123.1391)">
<path transform="scale(0.0040, -0.0040)" d="M0 56h81c171 0 285 -218 381 -362c12 -18 -16 -36 -28 -18c-88 132 -196 268 -353 268h-54c-15 0 -27 12 -27 27v85z" fill="currentColor"/>
</g>
<g transform="translate(6.6884, 109.7267)">
<rect x="0.0000" y="-13.2324" width="0.4500" height="26.4648" ry="0.0000" fill="currentColor"/>
</g>
<g transform="translate(17.0547, 98.5951)">
<rect x="-0.0725" y="-3.0000" width="0.1451" height="3.2470" ry="0.0471" fill="currentColor"/>
</g>
<g transform="translate(15.7466, 119.8583)">
<path transform="scale(0.0040, -0.0040)" d="M312 64c0 23 -18 41 -41 41c-39 0 -201 -110 -228 -142c-7 -8 -10 -17 -10 -27c0 -23 18 -41 41 -41c39 0 201 110 228 142c7 8 10 17 10 27zM259 137c46 0 86 -17 86 -74c0 -26 -15 -112 -73 -151c-29 -20 -89 -49 -186 -49c-46 0 -86 17 -86 74c0 26 16 112 74 151
c29 20 88 49 185 49z" fill="currentColor"/>
</g>
<g transform="translate(15.7466, 117.8583)">
<path transform="scale(0.0040, -0.0040)" d="M312 64c0 23 -18 41 -41 41c-39 0 -201 -110 -228 -142c-7 -8 -10 -17 -10 -27c0 -23 18 -41 41 -41c39 0 201 110 228 142c7 8 10 17 10 27zM259 137c46 0 86 -17 86 -74c0 -26 -15 -112 -73 -151c-29 -20 -89 -49 -186 -49c-46 0 -86 17 -86 74c0 26 16 112 74 151
c29 20 88 49 185 49z" fill="currentColor"/>
</g>
<g transform="translate(15.3323, 114.8230)">
<text font-family="Georgia Pro Cond" font-size="2.4690" text-anchor="start" fill="currentColor">
<tspan>Je</tspan>
</text>
</g>
<g transform="translate(14.8703, 112.0230)">
<text font-family="Georgia Pro Cond" font-size="2.4690" text-anchor="start" fill="currentColor">
<tspan>sor</tspan>
</text>
</g>
<g transform="translate(15.1716, 109.2230)">
<text font-family="Georgia Pro Cond" font-size="2.4690" text-anchor="start" fill="currentColor">
<tspan>fyl</tspan>
</text>
</g>
<g transform="translate(15.0511, 106.4230)">
<text font-family="Georgia Pro Cond" font-size="2.4690" text-anchor="start" fill="currentColor">
<tspan>vis</tspan>
</text>
</g>
<g transform="translate(15.7466, 100.0951)">
<path transform="scale(0.0040, -0.0040)" d="M312 64c0 23 -18 41 -41 41c-39 0 -201 -110 -228 -142c-7 -8 -10 -17 -10 -27c0 -23 18 -41 41 -41c39 0 201 110 228 142c7 8 10 17 10 27zM259 137c46 0 86 -17 86 -74c0 -26 -15 -112 -73 -151c-29 -20 -89 -49 -186 -49c-46 0 -86 17 -86 74c0 26 16 112 74 151
c29 20 88 49 185 49z" fill="currentColor"/>
</g>
<g transform="translate(15.7466, 99.0951)">
<path transform="scale(0.0040, -0.0040)" d="M312 64c0 23 -18 41 -41 41c-39 0 -201 -110 -228 -142c-7 -8 -10 -17 -10 -27c0 -23 18 -41 41 -41c39 0 201 110 228 142c7 8 10 17 10 27zM259 137c46 0 86 -17 86 -74c0 -26 -15 -112 -73 -151c-29 -20 -89 -49 -186 -49c-46 0 -86 17 -86 74c0 26 16 112 74 151
c29 20 88 49 185 49z" fill="currentColor"/>
</g>
<g transform="translate(30.6439, 99.5951)">
<path transform="scale(0.0040, -0.0040)" d="M215 137c67 0 111 -37 111 -92c0 -90 -111 -182 -215 -182c-67 0 -111 37 -111 92c0 90 111 182 215 182z" fill="currentColor"/>
</g>
<g transform="translate(12.4466, 121.8583)">
<path transform="scale(0.0040, -0.0040)" d="M29 39l-2 -64v-11c0 -22 2 -43 5 -65c44 38 91 80 91 138c0 33 -13 66 -42 66c-31 0 -51 -31 -52 -64zM-28 454c9 5 18 8 28 8s19 -3 28 -8l-7 -343c25 23 58 36 92 36c51 0 87 -49 87 -103c0 -79 -84 -117 -144 -169c-16 -14 -25 -41 -47 -41c-14 0 -25 13 -25 27z" fill="currentColor"/>
</g>
<g transform="translate(8.8170, 119.8583)">
<path transform="scale(0.0040, -0.0040)" d="M558 -125c0 28 22 51 50 51s51 -23 51 -51s-23 -51 -51 -51s-50 23 -50 51zM558 125c0 28 22 51 50 51s51 -23 51 -51s-23 -51 -51 -51s-50 23 -50 51zM231 264c172 0 294 -88 294 -251c0 -263 -262 -416 -515 -523c-3 -3 -7 -4 -10 -4c-7 0 -14 7 -14 14c0 3 1 7 4 10
c201 118 410 265 410 492c0 119 -61 234 -169 234c-72 0 -124 -53 -148 -123c10 4 19 6 29 6c55 0 100 -45 100 -100c0 -58 -44 -106 -100 -106c-60 0 -112 47 -112 106c0 133 101 245 231 245z" fill="currentColor"/>
</g>
<g transform="translate(38.6534, 120.8583)">
<rect x="-0.0725" y="0.6794" width="0.1451" height="2.9873" ry="0.0471" fill="currentColor"/>
</g>
<g transform="translate(39.8111, 120.8583)">
<rect x="-0.0725" y="-4.6667" width="0.1451" height="2.4873" ry="0.0471" fill="currentColor"/>
</g>
<g transform="translate(38.6534, 98.5951)">
<rect x="-0.0725" y="3.1794" width="0.1451" height="2.3206" ry="0.0471" fill="currentColor"/>
</g>
<g transform="translate(46.0495, 98.5951)">
<rect x="-0.0725" y="-2.0000" width="0.1451" height="3.3206" ry="0.0471" fill="currentColor"/>
</g>
<g transform="translate(46.0495, 120.8583)">
<rect x="-0.0725" y="-4.6667" width="0.1451" height="2.4873" ry="0.0471" fill="currentColor"/>
</g>
<g transform="translate(44.8918, 98.5951)">
<rect x="-0.0725" y="3.1794" width="0.1451" height="2.3206" ry="0.0471" fill="currentColor"/>
</g>
<g transform="translate(44.8192, 121.3583)">
<path transform="scale(0.0040, -0.0040)" d="M215 137c67 0 111 -37 111 -92c0 -90 -111 -182 -215 -182c-67 0 -111 37 -111 92c0 90 111 182 215 182z" fill="currentColor"/>
</g>
<g transform="translate(44.8192, 118.8583)">
<path transform="scale(0.0040, -0.0040)" d="M215 137c67 0 111 -37 111 -92c0 -90 -111 -182 -215 -182c-67 0 -111 37 -111 92c0 90 111 182 215 182z" fill="currentColor"/>
</g>
<g transform="translate(43.6229, 114.8230)">
<text font-family="Georgia Pro Cond" font-size="2.4690" text-anchor="start" fill="currentColor">
<tspan>den</tspan>
</text>
</g>
<g transform="translate(43.7836, 112.0230)">
<text font-family="Georgia Pro Cond" font-size="2.4690" text-anchor="start" fill="currentColor">
<tspan>sen</tspan>
</text>
</g>
<g transform="translate(44.1852, 109.2230)">
<text font-family="Georgia Pro Cond" font-size="2.4690" text-anchor="start" fill="currentColor">
<tspan>ta,</tspan>
</text>
</g>
<g transform="translate(43.6028, 106.4230)">
<text font-family="Georgia Pro Cond" font-size="2.4690" text-anchor="start" fill="currentColor">
<tspan>vigt</tspan>
</text>
</g>
<g transform="translate(44.8192, 101.5951)">
<path transform="scale(0.0040, -0.0040)" d="M215 137c67 0 111 -37 111 -92c0 -90 -111 -182 -215 -182c-67 0 -111 37 -111 92c0 90 111 182 215 182z" fill="currentColor"/>
</g>
<g transform="translate(44.8192, 100.0951)">
<path transform="scale(0.0040, -0.0040)" d="M215 137c67 0 111 -37 111 -92c0 -90 -111 -182 -215 -182c-67 0 -111 37 -111 92c0 90 111 182 215 182z" fill="currentColor"/>
</g>
<g transform="translate(31.8742, 98.5951)">
<rect x="-0.0725" y="-2.5000" width="0.1451" height="3.3206" ry="0.0471" fill="currentColor"/>
</g>
<g transform="translate(30.6439, 118.3583)">
<path transform="scale(0.0040, -0.0040)" d="M215 137c67 0 111 -37 111 -92c0 -90 -111 -182 -215 -182c-67 0 -111 37 -111 92c0 90 111 182 215 182z" fill="currentColor"/>
</g>
<g transform="translate(30.7164, 120.8583)">
<rect x="-0.0725" y="1.1794" width="0.1451" height="2.8206" ry="0.0471" fill="currentColor"/>
</g>
<g transform="translate(30.6439, 121.8583)">
<path transform="scale(0.0040, -0.0040)" d="M215 137c67 0 111 -37 111 -92c0 -90 -111 -182 -215 -182c-67 0 -111 37 -111 92c0 90 111 182 215 182z" fill="currentColor"/>
</g>
<g transform="translate(30.4116, 114.8230)">
<text font-family="Georgia Pro Cond" font-size="2.4690" text-anchor="start" fill="currentColor">
<tspan>ej</tspan>
</text>
</g>
<g transform="translate(31.8742, 120.8583)">
<rect x="-0.0725" y="-5.0000" width="0.1451" height="2.3206" ry="0.0471" fill="currentColor"/>
</g>
<g transform="translate(30.7164, 98.5951)">
<rect x="-0.0725" y="2.6794" width="0.1451" height="2.3206" ry="0.0471" fill="currentColor"/>
</g>
<g transform="translate(37.1033, 112.0230)">
<text font-family="Georgia Pro Cond" font-size="2.4690" text-anchor="start" fill="currentColor">
<tspan>glan</tspan>
</text>
</g>
<g transform="translate(39.8111, 98.5951)">
<rect x="-0.0725" y="-2.0000" width="0.1451" height="3.3206" ry="0.0471" fill="currentColor"/>
</g>
<g transform="translate(29.2266, 106.4230)">
<text font-family="Georgia Pro Cond" font-size="2.4690" text-anchor="start" fill="currentColor">
<tspan>som</tspan>
</text>
</g>
<g transform="translate(29.3270, 109.2230)">
<text font-family="Georgia Pro Cond" font-size="2.4690" text-anchor="start" fill="currentColor">
<tspan>vårt</tspan>
</text>
</g>
<g transform="translate(38.5809, 121.3583)">
<path transform="scale(0.0040, -0.0040)" d="M215 137c67 0 111 -37 111 -92c0 -90 -111 -182 -215 -182c-67 0 -111 37 -111 92c0 90 111 182 215 182z" fill="currentColor"/>
</g>
<g transform="translate(38.5809, 118.8583)">
<path transform="scale(0.0040, -0.0040)" d="M215 137c67 0 111 -37 111 -92c0 -90 -111 -182 -215 -182c-67 0 -111 37 -111 92c0 90 111 182 215 182z" fill="currentColor"/>
</g>
<g transform="translate(38.0272, 114.8230)">
<text font-family="Georgia Pro Cond" font-size="2.4690" text-anchor="start" fill="currentColor">
<tspan>på</tspan>
</text>
</g>
<g transform="translate(37.2238, 109.2230)">
<text font-family="Georgia Pro Cond" font-size="2.4690" text-anchor="start" fill="currentColor">
<tspan>hjär</tspan>
</text>
</g>
<g transform="translate(38.6900, 106.4230)">
<text font-family="Georgia Pro Cond" font-size="2.4690" text-anchor="start" fill="currentColor">
<tspan>e</tspan>
</text>
</g>
<g transform="translate(29.0057, 112.0230)">
<text font-family="Georgia Pro Cond" font-size="2.4690" text-anchor="start" fill="currentColor">
<tspan>sken</tspan>
</text>
</g>
<g transform="translate(38.5809, 101.5951)">
<path transform="scale(0.0040, -0.0040)" d="M215 137c67 0 111 -37 111 -92c0 -90 -111 -182 -215 -182c-67 0 -111 37 -111 92c0 90 111 182 215 182z" fill="currentColor"/>
</g>
<g transform="translate(38.5809, 100.0951)">
<path transform="scale(0.0040, -0.0040)" d="M215 137c67 0 111 -37 111 -92c0 -90 -111 -182 -215 -182c-67 0 -111 37 -111 92c0 90 111 182 215 182z" fill="currentColor"/>
</g>
<g transform="translate(8.0170, 127.5677)">
<text font-family="Fira Sans Extra Condensed" font-size="2.1999" text-anchor="start" fill="currentColor">
<tspan>Text:</tspan>
</text>
</g>
<g transform="translate(12.3928, 127.5677)">
<text font-family="Fira Sans Extra Condensed" font-size="2.1999" text-anchor="start" fill="currentColor">
<tspan>Efter</tspan>
</text>
</g>
<g transform="translate(16.8892, 127.5677)">
<text font-family="Fira Sans Extra Condensed" font-style="italic" font-size="2.1999" text-anchor="start" fill="currentColor">
<tspan>The</tspan>
</text>
</g>
<g transform="translate(20.4215, 127.5677)">
<text font-family="Fira Sans Extra Condensed" font-style="italic" font-size="2.1999" text-anchor="start" fill="currentColor">
<tspan>sands</tspan>
</text>
</g>
<g transform="translate(25.8819, 127.5677)">
<text font-family="Fira Sans Extra Condensed" font-style="italic" font-size="2.1999" text-anchor="start" fill="currentColor">
<tspan>of</tspan>
</text>
</g>
<g transform="translate(28.1288, 127.5677)">
<text font-family="Fira Sans Extra Condensed" font-style="italic" font-size="2.1999" text-anchor="start" fill="currentColor">
<tspan>time</tspan>
</text>
</g>
<g transform="translate(32.4243, 127.5677)">
<text font-family="Fira Sans Extra Condensed" font-style="italic" font-size="2.1999" text-anchor="start" fill="currentColor">
<tspan>are</tspan>
</text>
</g>
<g transform="translate(35.6754, 127.5677)">
<text font-family="Fira Sans Extra Condensed" font-style="italic" font-size="2.1999" text-anchor="start" fill="currentColor">
<tspan>sinking</tspan>
</text>
</g>
<g transform="translate(42.3007, 127.5677)">
<text font-family="Fira Sans Extra Condensed" font-size="2.1999" text-anchor="start" fill="currentColor">
<tspan>av</tspan>
</text>
</g>
<g transform="translate(44.7887, 127.5677)">
<text font-family="Fira Sans Extra Condensed" font-size="2.1999" text-anchor="start" fill="currentColor">
<tspan>Anne</tspan>
</text>
</g>
<g transform="translate(49.5662, 127.5677)">
<text font-family="Fira Sans Extra Condensed" font-size="2.1999" text-anchor="start" fill="currentColor">
<tspan>Ross</tspan>
</text>
</g>
<g transform="translate(54.0625, 127.5677)">
<text font-family="Fira Sans Extra Condensed" font-size="2.1999" text-anchor="start" fill="currentColor">
<tspan>Cousin,</tspan>
</text>
</g>
<g transform="translate(60.6477, 127.5677)">
<text font-family="Fira Sans Extra Condensed" font-size="2.1999" text-anchor="start" fill="currentColor">
<tspan>1857,</tspan>
</text>
</g>
<g transform="translate(65.1842, 127.5677)">
<text font-family="Fira Sans Extra Condensed" font-size="2.1999" text-anchor="start" fill="currentColor">
<tspan>insp.</tspan>
</text>
</g>
<g transform="translate(69.7207, 127.5677)">
<text font-family="Fira Sans Extra Condensed" font-size="2.1999" text-anchor="start" fill="currentColor">
<tspan>Samuel</tspan>
</text>
</g>
<g transform="translate(8.0170, 130.5677)">
<text font-family="Fira Sans Extra Condensed" font-size="2.1999" text-anchor="start" fill="currentColor">
<tspan>Rutherford,</tspan>
</text>
</g>
<g transform="translate(18.0566, 130.5677)">
<text font-family="Fira Sans Extra Condensed" font-size="2.1999" text-anchor="start" fill="currentColor">
<tspan>1661.</tspan>
</text>
</g>
<g transform="translate(22.6333, 130.5677)">
<text font-family="Fira Sans Extra Condensed" font-size="2.1999" text-anchor="start" fill="currentColor">
<tspan>Musik:</tspan>
</text>
</g>
<g transform="translate(28.5355, 130.5677)">
<text font-family="Fira Sans Extra Condensed" font-size="2.1999" text-anchor="start" fill="currentColor">
<tspan>R</tspan>
</text>
</g>
<g transform="translate(29.6201, 130.5677)">
<text font-family="Fira Sans Extra Condensed" font-size="1.7460" text-anchor="start" fill="currentColor">
<tspan>UTHERFORD</tspan>
</text>
</g>
<g transform="translate(38.0128, 130.5677)">
<text font-family="Fira Sans Extra Condensed" font-size="2.1999" text-anchor="start" fill="currentColor">
<tspan>av</tspan>
</text>
</g>
<g transform="translate(40.5007, 130.5677)">
<text font-family="Fira Sans Extra Condensed" font-size="2.1999" text-anchor="start" fill="currentColor">
<tspan>Chrétien</tspan>
</text>
</g>
<g transform="translate(48.0499, 130.5677)">
<text font-family="Fira Sans Extra Condensed" font-size="2.1999" text-anchor="start" fill="currentColor">
<tspan>Urhan,</tspan>
</text>
</g>
<g transform="translate(54.0727, 130.5677)">
<text font-family="Fira Sans Extra Condensed" font-size="2.1999" text-anchor="start" fill="currentColor">
<tspan>1834,</tspan>
</text>
</g>
<g transform="translate(58.7699, 130.5677)">
<text font-family="Fira Sans Extra Condensed" font-size="2.1999" text-anchor="start" fill="currentColor">
<tspan>arr.</tspan>
</text>
</g>
<g transform="translate(62.0612, 130.5677)">
<text font-family="Fira Sans Extra Condensed" font-size="2.1999" text-anchor="start" fill="currentColor">
<tspan>Edward</tspan>
</text>
</g>
<g transform="translate(68.6864, 130.5677)">
<text font-family="Fira Sans Extra Condensed" font-size="2.1999" text-anchor="start" fill="currentColor">
<tspan>F.</tspan>
</text>
</g>
<g transform="translate(70.4513, 130.5677)">
<text font-family="Fira Sans Extra Condensed" font-size="2.1999" text-anchor="start" fill="currentColor">
<tspan>Rimbault,</tspan>
</text>
</g>
<g transform="translate(8.0170, 133.5677)">
<text font-family="Fira Sans Extra Condensed" font-size="2.1999" text-anchor="start" fill="currentColor">
<tspan>1867.</tspan>
</text>
</g>
<g transform="translate(12.6338, 133.5677)">
<text font-family="Fira Sans Extra Condensed" font-size="2.1999" text-anchor="start" fill="currentColor">
<tspan>7.6.7.6 D</tspan>
</text>
</g>
</svg>
